<?xml version="1.0" standalone="no"?>
<!DOCTYPE svg PUBLIC "-//W3C//DTD SVG 20010904//EN"
 "http://www.w3.org/TR/2001/REC-SVG-20010904/DTD/svg10.dtd">
<svg version="1.0" xmlns="http://www.w3.org/2000/svg"
 width="460.000000pt" height="460.000000pt" viewBox="0 0 460.000000 460.000000"
 preserveAspectRatio="xMidYMid meet">
<metadata>
Created by potrace 1.14, written by Peter Selinger 2001-2017
</metadata>
<g transform="translate(0.000000,460.000000) scale(0.100000,-0.100000)"
fill="#000000" stroke="none">
<path d="M0 2300 l0 -2300 2300 0 2300 0 0 2300 0 2300 -2300 0 -2300 0 0
-2300z m4080 2070 c0 -11 -4 -20 -10 -20 -5 0 -10 9 -10 20 0 11 5 20 10 20 6
0 10 -9 10 -20z m-1625 -130 c0 -7 -7 -14 -16 -15 -12 -2 -15 3 -12 16 6 22
28 20 28 -1z m1615 5 c10 -12 10 -24 1 -54 -16 -57 -14 -100 9 -129 15 -18 17
-28 9 -33 -7 -4 -9 -14 -6 -22 3 -8 -1 -39 -10 -69 -8 -29 -15 -65 -15 -80 0
-16 -6 -28 -13 -28 -7 0 -15 -7 -19 -15 -3 -9 -17 -15 -33 -14 -16 1 -44 -5
-63 -14 -33 -15 -36 -14 -58 6 -22 20 -24 21 -33 4 -9 -15 -12 -16 -25 -2 -17
17 -49 21 -39 5 17 -28 -25 -69 -63 -61 -8 1 -20 -6 -28 -16 -7 -10 -14 -16
-14 -13 0 3 -4 20 -10 39 -5 19 -7 31 -3 27 3 -3 12 -1 18 4 7 6 20 7 30 4 13
-5 14 -9 3 -16 -10 -7 -8 -8 6 -6 12 2 20 12 21 26 1 13 8 28 16 33 12 8 12
10 -1 19 -12 8 -12 10 5 10 19 1 19 1 2 14 -9 7 -35 16 -57 20 -22 3 -40 11
-40 16 0 17 31 24 51 12 23 -14 59 -16 59 -2 0 5 -6 7 -14 4 -8 -3 -19 4 -26
16 -10 19 -9 21 12 20 75 -6 100 7 53 28 -28 13 -33 32 -9 32 9 0 18 8 21 19
2 10 16 24 29 31 18 10 21 16 13 27 -6 7 -16 13 -22 13 -13 0 -36 31 -37 50 0
11 11 15 40 14 22 0 45 3 51 7 15 9 38 -12 32 -28 -6 -16 19 -17 35 -1 7 7 12
27 12 45 0 23 6 36 18 40 9 4 23 13 30 20 18 17 47 16 62 -2z m-1993 -21 c7
-20 30 -17 55 6 22 20 64 28 53 10 -3 -5 -2 -10 4 -10 5 0 13 5 16 10 3 6 13
10 22 10 11 0 14 -7 11 -24 -3 -14 0 -27 6 -29 7 -3 11 6 11 21 0 16 6 26 18
28 9 1 15 -2 11 -7 -3 -5 0 -9 5 -9 6 0 11 -4 11 -10 0 -12 -22 -9 -33 5 -5 6
-7 4 -4 -5 4 -16 26 -21 42 -9 22 16 52 13 74 -8 13 -12 29 -19 36 -16 8 2 23
-1 35 -7 19 -10 26 -9 44 9 18 19 19 23 6 31 -29 19 10 10 51 -11 23 -11 38
-16 34 -10 -3 6 1 11 10 11 11 0 15 5 11 15 -4 12 3 15 34 15 22 0 40 -4 40
-10 0 -5 -10 -10 -22 -10 -29 -1 -56 -21 -51 -38 3 -8 -4 -11 -19 -10 -19 3
-23 -1 -20 -22 2 -24 20 -42 33 -34 4 2 9 -11 13 -29 9 -47 10 -50 30 -77 l18
-25 -7 25 c-4 14 -9 42 -12 63 -3 20 -9 40 -14 43 -5 3 -9 20 -8 37 1 30 1 30
8 7 7 -24 41 -42 41 -21 0 6 7 8 15 5 10 -4 15 0 15 11 0 15 1 15 16 0 9 -9
22 -14 29 -11 7 2 15 -5 19 -16 6 -26 0 -38 -20 -38 -8 0 -14 -7 -14 -15 0 -7
-8 -19 -17 -24 -10 -6 -13 -11 -7 -11 7 0 14 -9 17 -20 4 -16 1 -20 -11 -15
-12 3 -21 -4 -30 -25 -8 -17 -18 -28 -22 -25 -11 7 -23 -31 -15 -45 3 -5 3
-16 -2 -22 -11 -19 -21 43 -10 65 5 10 5 22 1 25 -4 4 -9 1 -11 -5 -6 -17 -30
-16 -36 1 -4 9 -15 12 -32 8 -17 -3 -24 -9 -21 -18 3 -8 1 -14 -4 -14 -6 0
-10 16 -10 35 0 22 -5 35 -13 35 -9 0 -12 -16 -9 -57 3 -56 2 -57 -13 -35 -11
15 -14 32 -10 51 9 41 -11 48 -40 15 -13 -16 -27 -25 -31 -21 -15 15 -35 -33
-28 -68 4 -23 2 -35 -5 -35 -6 0 -11 -7 -11 -15 0 -8 -5 -15 -11 -15 -7 0 -9
11 -6 28 3 15 2 34 -4 42 -7 12 -9 10 -9 -7 0 -13 -4 -23 -10 -23 -5 0 -10 -8
-10 -17 0 -10 -8 -27 -16 -38 -14 -19 -15 -16 -12 32 3 39 1 54 -10 58 -10 4
-13 0 -9 -15 3 -11 -1 -23 -8 -28 -7 -4 -12 -18 -11 -31 0 -13 -5 -26 -12 -29
-8 -2 -12 2 -10 13 2 11 -4 19 -14 20 -11 2 -17 -3 -16 -13 3 -42 -4 -115 -10
-102 -4 8 -16 28 -26 43 l-19 29 -13 -24 c-7 -12 -14 -34 -14 -48 -1 -24 -1
-24 -12 -5 -6 11 -20 27 -30 36 -10 9 -18 21 -18 28 0 6 -4 11 -9 11 -5 0 -12
15 -16 33 -7 33 -9 32 -20 -17 -5 -22 -9 -26 -18 -17 -8 8 -8 14 0 22 9 9 6
16 -9 29 -20 16 -21 20 -8 65 13 46 13 47 27 24 13 -23 14 -22 8 14 -5 28 -3
37 9 37 17 0 29 -48 21 -83 -4 -14 -2 -28 5 -32 7 -4 9 -19 4 -38 -6 -29 -5
-30 10 -17 15 12 19 12 26 0 5 -8 6 -18 4 -22 -3 -4 -3 -8 1 -8 3 0 10 12 16
26 8 22 6 30 -10 45 -11 11 -27 19 -36 19 -12 0 -13 3 -4 19 14 21 53 17 45
-5 -3 -7 1 -20 9 -28 8 -8 15 -19 15 -25 0 -5 8 -12 19 -16 10 -3 18 -13 17
-22 0 -9 5 -18 12 -20 14 -5 17 23 2 32 -13 8 -13 66 0 101 14 36 -5 58 -20
23 -8 -19 -9 -14 -5 29 6 58 -10 71 -38 30 l-16 -23 0 23 c-1 12 -5 22 -10 22
-5 0 -8 14 -6 31 4 26 2 29 -10 19 -8 -7 -15 -21 -15 -31 0 -32 -17 -21 -39
24 -22 46 -28 97 -11 97 6 0 10 9 10 19 0 11 5 23 10 26 16 10 12 25 -7 26
-15 0 -15 2 2 8 25 10 55 2 62 -15z m-133 -30 c-19 -38 -21 -50 -12 -68 6 -11
15 -37 18 -56 l7 -35 11 35 12 35 -5 -32 c-2 -18 0 -33 5 -33 6 0 10 -7 10
-15 0 -8 -7 -15 -15 -15 -8 0 -15 -5 -15 -11 0 -25 -25 1 -26 27 -3 65 -4 74
-15 74 -8 0 -9 -22 -4 -71 6 -58 5 -71 -6 -67 -8 3 -13 12 -13 20 1 8 -7 20
-18 27 -17 10 -18 9 -12 -16 4 -16 13 -42 21 -60 18 -44 17 -52 -7 -46 -16 4
-20 0 -21 -23 0 -29 0 -29 -10 -5 -12 30 -23 20 -15 -14 4 -14 13 -25 21 -25
7 0 16 -9 20 -20 7 -22 59 -63 68 -54 3 4 1 15 -6 25 -9 14 -9 21 1 31 8 7 13
9 12 3 -5 -22 0 -36 10 -30 13 8 17 -6 24 -70 3 -27 8 -63 12 -78 5 -21 3 -27
-7 -25 -8 2 -17 7 -21 12 -4 6 -13 4 -22 -3 -13 -11 -19 -11 -31 -1 -21 18
-20 -7 1 -31 8 -9 14 -27 12 -39 -3 -18 -5 -19 -20 -8 -9 7 -18 28 -21 47 -2
19 -7 36 -13 38 -11 4 -12 -77 -1 -94 5 -8 4 -13 -2 -13 -11 0 -19 25 -23 75
-2 18 -9 30 -17 30 -20 0 -23 -36 -5 -62 8 -13 12 -23 8 -23 -4 0 -2 -6 3 -12
6 -7 13 -22 17 -32 5 -15 4 -17 -7 -8 -8 7 -16 10 -19 7 -3 -3 -10 6 -16 20
-8 17 -8 25 -1 25 6 0 4 11 -5 28 -8 15 -19 41 -25 57 -15 41 -57 89 -70 80
-14 -8 -14 -35 -1 -35 6 0 10 -7 10 -15 0 -12 -5 -13 -27 -4 -20 7 -28 6 -35
-3 -6 -10 -8 -8 -8 5 0 9 5 17 11 17 6 0 8 9 4 21 -8 25 2 69 15 69 6 0 10 -8
10 -17 0 -16 1 -16 17 0 13 13 15 20 5 29 -18 18 -14 40 13 73 19 23 24 26 25
13 0 -10 7 -18 16 -18 11 0 14 6 9 20 -4 13 -2 20 6 20 10 0 10 3 1 12 -7 7
-12 20 -12 30 0 10 -5 18 -11 18 -7 0 -17 8 -24 17 -11 15 -15 15 -29 4 -9 -7
-16 -21 -16 -31 0 -9 -10 -25 -21 -36 l-22 -19 7 40 c3 22 8 49 10 60 2 11 4
23 5 28 3 17 21 5 21 -14 0 -26 24 -20 28 7 2 10 8 24 14 29 6 7 7 0 3 -17 -5
-19 -3 -28 5 -28 10 0 12 20 7 80 -4 61 -2 82 9 91 11 9 17 5 29 -22 l14 -34
1 43 c0 44 9 52 30 27 15 -18 40 -3 40 24 0 9 7 24 14 34 11 15 15 15 19 3 3
-8 1 -17 -6 -19 -7 -3 -1 -4 12 -4 14 1 26 10 32 24 5 13 13 23 17 23 5 0 -1
-21 -14 -46z m636 25 c0 -5 -4 -9 -10 -9 -5 0 -10 7 -10 16 0 8 5 12 10 9 6
-3 10 -10 10 -16z m-2110 -35 c0 -8 -7 -17 -15 -20 -8 -4 -15 -10 -15 -16 0
-5 4 -7 9 -4 25 16 40 -8 47 -71 7 -65 25 -118 37 -107 3 4 13 -1 22 -10 10
-10 12 -16 5 -16 -7 0 -10 -7 -6 -15 3 -8 1 -15 -3 -15 -5 0 -11 4 -13 10 -4
13 -26 -2 -28 -20 -5 -35 1 -50 20 -50 21 0 27 15 10 25 -16 10 -12 19 15 32
24 11 46 1 25 -12 -6 -4 -8 -11 -4 -16 3 -5 -4 -17 -16 -27 -20 -16 -21 -19
-6 -31 9 -7 16 -19 16 -27 0 -16 39 -58 63 -67 16 -6 17 -9 2 -37 -12 -24 -13
-33 -3 -49 17 -28 7 -33 -33 -20 -50 17 -65 34 -84 95 -9 30 -24 62 -33 71
-20 20 -43 103 -37 133 2 12 -2 35 -10 51 -18 34 -19 81 -3 97 8 8 8 15 -2 26
-20 25 -5 101 20 103 12 1 20 -4 20 -13z m3995 -34 c3 -5 1 -10 -4 -10 -6 0
-11 5 -11 10 0 6 2 10 4 10 3 0 8 -4 11 -10z m-2906 -31 c-19 -12 -39 -11 -39
2 0 5 4 8 9 4 5 -3 12 -1 16 5 4 6 11 7 17 4 6 -4 5 -10 -3 -15z m1476 11 c3
-5 1 -10 -4 -10 -6 0 -11 5 -11 10 0 6 2 10 4 10 3 0 8 -4 11 -10z m55 -5 c-7
-9 -15 -13 -17 -11 -7 7 7 26 19 26 6 0 6 -6 -2 -15z m-1588 -25 c-3 -20 -13
-34 -33 -44 l-29 -14 0 32 c0 29 5 35 33 44 17 5 32 10 33 11 0 1 -1 -12 -4
-29z m1313 20 c3 -5 -1 -10 -9 -10 -8 0 -18 5 -21 10 -3 6 1 10 9 10 8 0 18
-4 21 -10z m172 -22 c-3 -8 -6 -5 -6 6 -1 11 2 17 5 13 3 -3 4 -12 1 -19z
m-1576 -36 c-13 -2 -27 2 -32 9 -14 23 1 29 29 11 l26 -17 -23 -3z m1394 18
c0 -7 -6 -15 -12 -17 -8 -3 -13 4 -13 17 0 13 5 20 13 18 6 -3 12 -11 12 -18z
m235 -10 c0 -5 -4 -10 -10 -10 -5 0 -10 5 -10 10 0 6 5 10 10 10 6 0 10 -4 10
-10z m-180 -21 c0 -11 -4 -17 -10 -14 -5 3 -10 13 -10 21 0 8 5 14 10 14 6 0
10 -9 10 -21z m-1490 -9 c0 -5 -7 -7 -15 -4 -8 4 -15 8 -15 10 0 2 7 4 15 4 8
0 15 -4 15 -10z m1560 -46 c0 -14 -4 -22 -10 -19 -5 3 -10 0 -10 -7 0 -8 -4
-7 -11 4 -7 12 -6 23 3 37 15 25 28 18 28 -15z m100 -20 c0 -14 4 -23 10 -19
6 3 10 1 10 -5 0 -6 5 -8 10 -5 12 7 12 3 4 -19 -9 -24 -29 -19 -42 9 -15 32
-15 65 -2 65 6 0 10 -12 10 -26z m-260 -3 c4 -8 13 -10 20 -6 9 5 11 4 6 -4
-6 -8 0 -10 18 -5 17 4 26 2 26 -6 0 -6 7 -18 15 -27 16 -16 16 -37 -1 -39
-19 -2 -64 -24 -63 -31 1 -16 18 -47 18 -35 2 24 31 12 31 -12 0 -14 4 -27 9
-30 10 -7 21 17 21 45 0 35 17 19 18 -17 1 -20 6 -41 11 -48 16 -20 23 -56 11
-56 -6 0 -8 5 -5 10 3 6 4 10 0 10 -3 0 -10 -12 -15 -26 -6 -14 -14 -22 -20
-19 -5 3 -10 1 -10 -5 0 -6 -6 -10 -14 -8 -8 2 -22 -6 -30 -17 -12 -14 -14
-15 -10 -4 3 10 1 20 -5 23 -5 4 -12 -3 -16 -14 -4 -11 -10 -18 -15 -15 -5 3
-6 13 -3 23 5 13 -1 11 -24 -8 -31 -25 -43 -50 -23 -50 16 0 11 -52 -7 -72
-14 -16 -15 -21 -4 -27 7 -5 12 -14 10 -20 -3 -8 -10 -8 -24 3 -15 10 -17 17
-8 27 6 8 11 38 12 68 0 42 5 57 21 68 16 12 18 17 7 33 -12 20 -12 19 -19 0
-8 -21 -28 -28 -28 -9 0 5 -4 7 -10 4 -5 -3 -10 1 -10 10 0 9 8 19 18 22 16 4
19 15 20 79 0 42 -4 72 -9 68 -5 -3 -9 13 -9 35 0 23 5 41 10 41 6 0 10 7 10
16 0 8 5 12 11 9 6 -4 13 2 16 13 5 22 30 23 43 3z m-818 -33 c-16 -16 -44
-20 -35 -5 16 27 28 35 38 26 5 -6 5 -13 -3 -21z m145 7 c-4 -8 -11 -15 -17
-15 -6 0 -6 7 2 20 14 22 24 19 15 -5z m871 3 c-2 -13 -11 -24 -20 -26 -21 -4
-24 18 -6 36 19 19 30 14 26 -10z m-538 -19 c0 -14 -27 -10 -33 5 -4 10 0 12
14 9 10 -3 19 -9 19 -14z m2105 -4 c0 -26 -49 -34 -59 -10 -9 25 3 37 32 33
19 -2 27 -9 27 -23z m-1605 -41 c0 -8 -9 -14 -20 -14 -11 0 -20 6 -20 13 0 7
9 13 20 14 11 1 20 -4 20 -13z m110 -14 c-6 -11 -12 -20 -14 -20 -2 0 -2 9 1
20 3 11 9 20 15 20 5 0 4 -9 -2 -20z m-1090 -22 c0 -5 -4 -8 -10 -8 -5 0 -10
10 -10 23 0 18 2 19 10 7 5 -8 10 -18 10 -22z m-230 13 c0 -5 -7 -12 -16 -15
-14 -5 -15 -4 -4 9 14 17 20 19 20 6z m714 2 c4 -5 13 -8 19 -8 11 0 18 -79 9
-99 -7 -13 -22 16 -22 42 0 32 -32 25 -40 -8 l-6 -25 -8 29 c-5 22 -3 32 8 38
9 5 16 16 16 23 0 16 12 20 24 8z m-1306 -20 c5 -18 -23 -16 -39 3 -11 14 -10
15 11 12 13 -1 25 -9 28 -15z m529 -15 c-3 -7 -5 -2 -5 12 0 14 2 19 5 13 2
-7 2 -19 0 -25z m853 17 c0 -8 -4 -15 -10 -15 -5 0 -10 7 -10 15 0 8 5 15 10
15 6 0 10 -7 10 -15z m30 -22 c-1 -24 -2 -26 -11 -10 -5 9 -7 22 -4 27 10 17
15 11 15 -17z m93 12 c-3 -9 -8 -14 -10 -11 -3 3 -2 9 2 15 9 16 15 13 8 -4z
m-43 -25 c0 -5 8 -10 18 -10 15 -1 15 -2 -3 -16 -16 -12 -18 -18 -7 -34 6 -11
12 -28 13 -37 0 -11 6 -5 15 15 13 30 34 44 34 22 0 -5 -5 -10 -11 -10 -8 0
-8 -5 1 -15 7 -8 8 -15 3 -15 -14 0 -44 -104 -37 -126 4 -14 3 -16 -4 -5 -5 7
-16 11 -23 9 -8 -3 -19 1 -26 8 -16 15 -17 64 -3 64 12 0 30 -41 23 -52 -2 -5
0 -8 5 -8 6 0 12 6 14 13 8 20 -3 97 -14 97 -5 0 -7 3 -5 8 3 4 2 28 -3 55 -4
26 -3 47 2 47 4 0 8 -4 8 -10z m-90 -16 c0 -8 -4 -12 -10 -9 -5 3 -10 10 -10
16 0 5 5 9 10 9 6 0 10 -7 10 -16z m530 1 c0 -8 -9 -19 -19 -24 -17 -10 -18
-9 -7 14 12 28 26 33 26 10z m60 11 c0 -3 -4 -8 -10 -11 -5 -3 -10 -1 -10 4 0
6 5 11 10 11 6 0 10 -2 10 -4z m67 -18 c-3 -8 -6 -5 -6 6 -1 11 2 17 5 13 3
-3 4 -12 1 -19z m-893 -1 c7 -7 13 -19 13 -28 0 -21 -34 -22 -43 -1 -6 14 -9
11 -14 -13 -8 -30 -8 -30 -9 -3 0 15 6 34 15 42 19 19 22 20 38 3z m66 -4 c0
-8 -4 -12 -9 -8 -5 3 -12 -5 -14 -17 -3 -18 -5 -16 -6 8 -1 21 4 31 14 31 8 0
15 -7 15 -14z m921 -30 c-9 -16 -10 -15 -11 8 0 14 3 29 8 33 12 12 14 -22 3
-41z m-2224 30 c-13 -3 -16 -10 -12 -21 13 -32 10 -47 -8 -44 -14 2 -16 -2
-11 -22 7 -28 -17 -46 -60 -46 -34 0 -57 -10 -50 -22 8 -13 -15 -28 -41 -27
-17 1 -16 2 6 12 29 13 31 41 3 61 -20 15 -11 36 17 36 10 0 19 6 19 14 0 18
28 29 65 26 25 -2 27 0 17 13 -15 18 -4 24 43 24 17 0 22 -2 12 -4z m983 -28
c0 -8 -2 -15 -4 -15 -2 0 -6 7 -10 15 -3 8 -1 15 4 15 6 0 10 -7 10 -15z m424
3 c3 -7 7 -29 9 -49 5 -33 3 -36 -15 -31 -15 4 -19 0 -17 -14 2 -10 -5 -32
-14 -49 -14 -24 -17 -26 -11 -6 4 16 3 21 -5 17 -6 -4 -11 -1 -11 8 0 8 5 18
10 21 6 4 8 15 5 25 -4 13 0 20 15 25 21 7 21 7 3 28 -18 21 -18 21 1 7 17
-14 18 -13 12 8 -5 14 -3 22 4 22 6 0 12 -6 14 -12z m-91 -18 c3 -11 0 -23 -5
-27 -7 -3 -8 -1 -4 5 4 7 2 12 -3 12 -6 0 -11 7 -11 15 0 22 17 18 23 -5z
m627 -1 c0 -11 -4 -17 -10 -14 -5 3 -10 13 -10 21 0 8 5 14 10 14 6 0 10 -9
10 -21z m-1410 -4 c0 -8 -4 -15 -10 -15 -5 0 -10 7 -10 15 0 8 5 15 10 15 6 0
10 -7 10 -15z m69 -45 c1 -20 -1 -22 -9 -10 -5 8 -9 29 -9 45 0 26 2 27 9 10
5 -11 9 -31 9 -45z m522 19 c-6 -16 -10 -18 -10 -7 -1 22 12 55 16 42 2 -6 -1
-22 -6 -35z m913 26 c-4 -8 -8 -15 -10 -15 -2 0 -4 7 -4 15 0 8 4 15 10 15 5
0 7 -7 4 -15z m206 -30 c-14 -17 -30 -20 -30 -6 0 5 8 12 18 14 9 3 19 5 21 6
2 0 -2 -6 -9 -14z m560 -1 c0 -6 -16 -18 -35 -27 -37 -18 -50 -10 -40 23 5 15
14 19 41 17 19 -1 34 -7 34 -13z m-2383 -16 c-3 -8 -6 -5 -6 6 -1 11 2 17 5
13 3 -3 4 -12 1 -19z m1502 -14 c-9 -22 -13 -25 -16 -12 -3 10 2 24 9 32 18
20 20 13 7 -20z m-622 4 c-3 -8 -6 -5 -6 6 -1 11 2 17 5 13 3 -3 4 -12 1 -19z
m-964 -10 c4 -12 4 -24 1 -27 -6 -7 -24 20 -24 37 0 21 17 13 23 -10z m237 13
c0 -6 -4 -12 -8 -15 -5 -3 -9 1 -9 9 0 8 4 15 9 15 4 0 8 -4 8 -9z m500 -1 c0
-5 -2 -10 -4 -10 -3 0 -8 5 -11 10 -3 6 -1 10 4 10 6 0 11 -4 11 -10z m40 -4
c0 -2 -7 -9 -15 -16 -12 -10 -15 -10 -15 4 0 9 7 16 15 16 8 0 15 -2 15 -4z
m97 -28 c-3 -7 -5 -2 -5 12 0 14 2 19 5 13 2 -7 2 -19 0 -25z m253 16 c0 -8
-5 -12 -10 -9 -6 4 -8 11 -5 16 9 14 15 11 15 -7z m860 2 c0 -3 -4 -8 -10 -11
-5 -3 -10 -1 -10 4 0 6 5 11 10 11 6 0 10 -2 10 -4z m-1150 -26 c0 -11 -4 -20
-10 -20 -5 0 -10 2 -10 4 0 2 -3 11 -6 20 -4 11 -1 16 10 16 9 0 16 -8 16 -20z
m854 5 c-4 -8 -8 -15 -10 -15 -2 0 -4 7 -4 15 0 8 4 15 10 15 5 0 7 -7 4 -15z
m-403 -17 c0 -13 3 -18 5 -11 3 7 11 10 19 7 11 -5 11 -11 -1 -39 -7 -19 -11
-41 -8 -49 3 -9 1 -16 -4 -16 -18 0 -24 20 -11 36 9 11 8 18 -5 32 -18 20 -22
62 -6 62 6 0 10 -10 11 -22z m259 12 c0 -5 -4 -10 -10 -10 -5 0 -10 5 -10 10
0 6 5 10 10 10 6 0 10 -4 10 -10z m938 -21 c-10 -7 -9 -9 4 -9 17 0 17 -1 1
-19 -15 -18 -18 -18 -40 -4 -29 19 -29 37 0 50 27 13 58 -4 35 -18z m-2368 -5
c0 -8 -4 -12 -10 -9 -5 3 -10 13 -10 21 0 8 5 12 10 9 6 -3 10 -13 10 -21z
m294 -18 c6 -25 5 -28 -7 -18 -8 7 -14 24 -14 38 0 31 12 20 21 -20z m260 1
c-10 -26 -19 -20 -19 13 0 24 2 27 13 16 7 -7 10 -20 6 -29z m846 34 c0 -6 -4
-13 -10 -16 -5 -3 -10 1 -10 9 0 9 5 16 10 16 6 0 10 -4 10 -9z m210 5 c0 -3
-4 -8 -10 -11 -5 -3 -10 -1 -10 4 0 6 5 11 10 11 6 0 10 -2 10 -4z m-1525 -26
c3 -8 1 -28 -3 -45 l-9 -30 -7 38 c-4 20 -11 37 -16 37 -6 0 -10 4 -10 8 0 15
40 8 45 -8z m-195 -11 c0 -6 -4 -7 -10 -4 -5 3 -10 11 -10 16 0 6 5 7 10 4 6
-3 10 -11 10 -16z m1664 -3 c-3 -9 -10 -16 -15 -16 -6 0 -5 9 1 21 13 24 24
20 14 -5z m-1427 -8 c-3 -8 -6 -5 -6 6 -1 11 2 17 5 13 3 -3 4 -12 1 -19z
m1183 6 c0 -8 -5 -12 -10 -9 -6 4 -8 11 -5 16 9 14 15 11 15 -7z m40 -4 c0 -5
-5 -10 -11 -10 -5 0 -7 5 -4 10 3 6 8 10 11 10 2 0 4 -4 4 -10z m940 1 c0 -10
-30 -24 -37 -17 -3 3 -2 9 2 15 8 13 35 15 35 2z m-2356 -17 c3 -9 6 -21 6
-27 0 -16 -23 9 -26 28 -3 20 12 19 20 -1z m756 -16 c0 -36 -4 -35 -14 5 -4
16 -2 27 4 27 5 0 10 -14 10 -32z m34 23 c3 -5 -1 -11 -9 -14 -9 -4 -12 -1 -8
9 6 16 10 17 17 5z m989 2 c9 -8 -24 -32 -44 -33 -9 0 -20 7 -23 16 -3 8 -2
12 4 9 5 -3 18 -1 27 4 21 12 28 13 36 4z m27 -8 c0 -8 -10 -19 -21 -26 -21
-11 -21 -11 -3 15 22 30 24 31 24 11z m-1470 1 c0 -3 -4 -8 -10 -11 -5 -3 -10
-1 -10 4 0 6 5 11 10 11 6 0 10 -2 10 -4z m-383 -43 c-3 -10 -5 -4 -5 12 0 17
2 24 5 18 2 -7 2 -21 0 -30z m1035 9 c-3 -17 -7 -20 -13 -10 -13 19 -11 35 4
35 9 0 12 -9 9 -25z m145 8 c-3 -11 -1 -18 4 -14 5 3 9 0 9 -5 0 -6 -7 -11
-15 -11 -8 0 -15 -4 -15 -10 0 -11 -36 -50 -46 -50 -4 0 0 7 7 17 8 9 13 25
11 36 -3 13 0 17 9 11 9 -5 11 -2 6 9 -4 10 0 20 11 26 24 14 25 14 19 -9z
m273 11 c0 -5 -7 -14 -15 -21 -8 -7 -15 -21 -15 -31 0 -10 -5 -21 -11 -25 -8
-5 -8 -8 0 -13 8 -5 4 -14 -10 -27 -13 -10 -19 -13 -14 -5 4 8 3 16 -4 21 -17
10 -19 72 -3 77 6 3 13 -4 13 -14 1 -16 2 -16 6 0 2 9 11 17 19 17 8 0 14 7
14 15 0 8 5 15 10 15 6 0 10 -4 10 -9z m40 -7 c0 -8 -5 -12 -10 -9 -6 4 -8 11
-5 16 9 14 15 11 15 -7z m-1325 -5 c11 -17 -1 -21 -15 -4 -8 9 -8 15 -2 15 6
0 14 -5 17 -11z m55 1 c0 -5 -2 -10 -4 -10 -3 0 -8 5 -11 10 -3 6 -1 10 4 10
6 0 11 -4 11 -10z m665 -8 c-3 -3 -11 0 -18 7 -9 10 -8 11 6 5 10 -3 15 -9 12
-12z m-115 -24 c0 -5 -4 -8 -10 -8 -5 0 -10 10 -10 23 0 18 2 19 10 7 5 -8 10
-18 10 -22z m-1277 10 c-4 -7 -6 -22 -4 -33 l3 -20 -16 20 c-21 28 -20 45 5
45 14 0 18 -4 12 -12z m851 -14 c3 -8 -1 -14 -9 -14 -8 0 -15 2 -15 4 0 2 -3
12 -6 20 -4 12 -2 15 9 10 9 -3 18 -12 21 -20z m2196 22 c0 -9 -30 -14 -35 -6
-4 6 3 10 14 10 12 0 21 -2 21 -4z m-3000 -16 c0 -5 -7 -7 -15 -4 -8 4 -15 8
-15 10 0 2 7 4 15 4 8 0 15 -4 15 -10z m893 -60 c-5 -4 -16 1 -25 12 -14 14
-15 18 -4 18 9 0 13 8 10 23 -3 12 2 7 11 -12 8 -19 12 -38 8 -41z m1307 60
c0 -5 -4 -10 -9 -10 -5 0 -8 -7 -7 -16 0 -9 -6 -19 -14 -21 -12 -4 -13 -3 -1
5 7 5 10 15 7 21 -8 13 1 31 15 31 5 0 9 -4 9 -10z m460 -5 c0 -8 -7 -15 -15
-15 -16 0 -20 12 -8 23 11 12 23 8 23 -8z m-2050 -6 c0 -4 -7 -6 -15 -3 -11 5
-13 2 -9 -10 6 -15 3 -15 -20 -5 -36 17 -33 27 9 27 19 0 35 -4 35 -9z m1108
-6 c-1 -10 1 -24 5 -30 5 -7 4 -13 -2 -13 -5 0 -11 6 -14 13 -4 13 3 47 10 47
2 0 3 -8 1 -17z m-1368 -7 c133 -28 274 -88 310 -131 7 -8 17 -15 23 -15 5 0
22 -12 37 -27 15 -16 36 -36 46 -45 80 -73 64 -76 -21 -4 -35 30 -73 60 -85
66 -11 6 -17 16 -14 22 4 7 2 8 -5 4 -6 -4 -23 0 -37 8 -13 9 -70 35 -127 57
-99 40 -107 41 -247 46 -114 4 -163 2 -229 -12 -47 -9 -92 -21 -100 -25 -9 -5
-56 -28 -104 -51 -49 -24 -100 -53 -113 -66 -14 -13 -29 -23 -34 -23 -14 0
-119 -112 -148 -157 -15 -24 -31 -43 -35 -43 -5 0 -7 3 -5 8 38 72 67 145 63
152 -9 14 19 12 33 -2 9 -9 19 -5 42 17 16 15 27 33 23 38 -3 6 -2 8 3 5 10
-6 42 23 35 32 -2 3 14 10 35 17 22 6 35 12 31 12 -5 1 -1 8 8 17 8 9 22 13
31 10 8 -3 43 8 77 26 126 63 366 94 507 64z m790 4 c0 -5 -4 -10 -10 -10 -5
0 -10 5 -10 10 0 6 5 10 10 10 6 0 10 -4 10 -10z m1190 0 c0 -5 -7 -10 -15
-10 -8 0 -15 5 -15 10 0 6 7 10 15 10 8 0 15 -4 15 -10z m58 -10 c-7 -10 -14
-18 -15 -16 -6 6 9 36 18 36 5 0 4 -9 -3 -20z m-1388 0 c0 -5 -2 -10 -4 -10
-3 0 -8 5 -11 10 -3 6 -1 10 4 10 6 0 11 -4 11 -10z m1260 1 c0 -5 -13 -14
-30 -20 -37 -13 -39 -6 -2 13 33 18 32 18 32 7z m23 -18 c-4 -11 -3 -14 5 -9
7 4 15 0 19 -10 4 -10 0 -20 -11 -26 -9 -5 -14 -13 -11 -19 11 -16 25 -10 37
16 12 27 34 35 24 9 -5 -13 -2 -15 16 -9 84 26 187 43 214 35 l29 -8 -33 -1
c-56 -2 -250 -59 -279 -82 -7 -6 -13 -8 -13 -3 0 5 -4 5 -8 -1 -4 -5 -23 -19
-42 -29 -42 -24 -37 -20 -127 -96 -39 -33 -80 -73 -90 -90 -9 -16 -21 -30 -25
-30 -4 0 -20 -24 -34 -52 -15 -29 -29 -47 -31 -40 -6 16 -23 5 -23 -14 0 -8 5
-12 10 -9 6 4 5 -5 -2 -19 -6 -14 -15 -26 -19 -26 -4 0 -10 -11 -13 -25 -4
-14 -11 -25 -16 -25 -6 0 -10 -6 -10 -14 0 -8 -4 -17 -9 -20 -5 -4 -8 5 -6 19
1 14 -1 25 -5 25 -10 0 -20 -78 -20 -152 0 -54 -2 -59 -26 -68 -38 -15 -43
-13 -42 20 1 17 -2 33 -5 37 -4 3 -7 -12 -7 -34 0 -23 5 -44 10 -46 6 -3 5 -4
-2 -3 -7 1 -19 13 -25 27 l-13 24 0 -30 c0 -18 -3 -26 -10 -19 -11 11 8 95 24
106 6 4 16 2 23 -4 29 -24 12 35 -18 63 -17 16 -28 29 -24 29 4 0 1 8 -6 18
-7 9 0 6 15 -8 22 -19 27 -21 19 -6 -6 10 -8 27 -5 38 4 18 5 18 25 1 18 -16
20 -16 14 -1 -7 19 26 31 42 15 14 -14 16 14 2 28 -4 6 -11 22 -15 38 -5 21
-3 27 10 27 9 0 14 -6 11 -13 -3 -8 -1 -20 5 -28 8 -11 9 -11 5 3 -6 18 22 35
32 20 3 -5 15 -6 26 -1 11 4 14 8 8 8 -8 1 -5 9 7 21 12 12 25 18 30 15 12 -7
42 63 33 79 -3 6 -3 8 1 4 8 -7 66 40 66 53 0 5 -7 5 -17 2 -11 -4 -14 -3 -9
6 5 7 14 10 20 8 7 -3 44 24 82 59 37 35 64 64 58 64 -5 0 -16 -6 -23 -12 -10
-11 -11 -10 -6 4 4 9 16 19 28 23 22 6 22 6 2 15 -11 5 -15 9 -10 10 6 1 18 3
28 5 9 2 17 -1 17 -6 0 -14 23 -10 45 8 15 12 16 14 3 10 -9 -3 -19 0 -22 9
-3 8 0 14 7 14 20 0 51 26 40 33 -5 3 -21 0 -36 -8 -16 -8 -29 -10 -33 -4 -3
5 13 17 35 27 22 9 41 23 41 30 0 6 4 12 10 12 5 0 6 -7 3 -17z m-1515 -30 c0
-36 0 -37 -13 -13 -13 24 -10 50 5 50 4 0 8 -17 8 -37z m388 22 c17 -16 14
-18 -10 -9 -9 3 -16 10 -16 15 0 13 9 11 26 -6z m-305 -17 c11 -21 11 -22 -4
-9 -10 7 -17 17 -17 22 0 15 9 10 21 -13z m926 0 c-3 -8 -6 -5 -6 6 -1 11 2
17 5 13 3 -3 4 -12 1 -19z m1020 6 c-3 -3 -12 -4 -19 -1 -8 3 -5 6 6 6 11 1
17 -2 13 -5z m-1877 -24 c0 -11 -2 -20 -4 -20 -2 0 -6 9 -9 20 -3 11 -1 20 4
20 5 0 9 -9 9 -20z m-172 -13 c2 -10 -3 -14 -15 -13 -10 2 -17 6 -15 9 1 4 2
12 2 18 0 16 25 5 28 -14z m372 -7 l13 -25 -20 20 c-11 11 -18 24 -16 28 6 10
7 9 23 -23z m217 8 c-3 -8 -6 -5 -6 6 -1 11 2 17 5 13 3 -3 4 -12 1 -19z m375
0 c-7 -7 -12 -8 -12 -2 0 6 3 14 7 17 3 4 9 5 12 2 2 -3 -1 -11 -7 -17z m303
12 c3 -5 -3 -10 -14 -10 -12 0 -21 5 -21 10 0 6 6 10 14 10 8 0 18 -4 21 -10z
m153 -9 c-7 -11 -20 -22 -30 -24 -25 -7 -23 10 2 18 11 3 20 11 20 16 0 5 5 9
10 9 6 0 5 -8 -2 -19z m-627 -14 c-10 -9 -11 -8 -5 6 3 10 9 15 12 12 3 -3 0
-11 -7 -18z m1062 16 c-7 -2 -19 -2 -25 0 -7 3 -2 5 12 5 14 0 19 -2 13 -5z
m-968 -13 c3 -5 2 -10 -4 -10 -5 0 -13 5 -16 10 -3 6 -2 10 4 10 5 0 13 -4 16
-10z m235 6 c0 -3 -4 -8 -10 -11 -5 -3 -10 -1 -10 4 0 6 5 11 10 11 6 0 10 -2
10 -4z m30 -3 c0 -5 -5 -15 -10 -23 -8 -12 -10 -11 -10 8 0 12 5 22 10 22 6 0
10 -3 10 -7z m155 -3 c-3 -5 -10 -10 -16 -10 -5 0 -9 5 -9 10 0 6 7 10 16 10
8 0 12 -4 9 -10z m490 4 c-11 -2 -45 -9 -75 -15 -59 -12 -193 -66 -198 -80 -2
-5 -9 -9 -16 -9 -21 0 -96 -61 -89 -72 3 -7 1 -8 -6 -4 -6 4 -20 2 -29 -5 -9
-7 0 4 21 24 21 21 41 37 45 37 4 0 25 14 46 30 22 17 44 30 50 30 6 0 25 7
41 16 44 23 155 53 195 52 19 0 26 -2 15 -4z m-1460 -14 c3 -5 1 -10 -4 -10
-6 0 -11 5 -11 10 0 6 2 10 4 10 3 0 8 -4 11 -10z m1105 6 c0 -3 -4 -8 -10
-11 -5 -3 -10 -1 -10 4 0 6 5 11 10 11 6 0 10 -2 10 -4z m-376 -30 c-3 -9 -10
-16 -15 -16 -6 0 -5 9 1 21 13 24 24 20 14 -5z m-774 4 c0 -5 -2 -10 -4 -10
-3 0 -8 5 -11 10 -3 6 -1 10 4 10 6 0 11 -4 11 -10z m980 6 c0 -11 -19 -15
-25 -6 -3 5 1 10 9 10 9 0 16 -2 16 -4z m-333 -28 c-3 -8 -6 -5 -6 6 -1 11 2
17 5 13 3 -3 4 -12 1 -19z m-297 -9 c0 -6 -4 -7 -10 -4 -5 3 -10 11 -10 16 0
6 5 7 10 4 6 -3 10 -11 10 -16z m655 11 c-3 -5 -11 -10 -16 -10 -6 0 -7 5 -4
10 3 6 11 10 16 10 6 0 7 -4 4 -10z m-1160 -10 c3 -6 -1 -7 -9 -4 -18 7 -21
14 -7 14 6 0 13 -4 16 -10z m295 0 c0 -5 -5 -10 -11 -10 -5 0 -7 5 -4 10 3 6
8 10 11 10 2 0 4 -4 4 -10z m-526 -24 c79 -62 145 -125 177 -169 41 -58 91
-148 108 -197 24 -65 51 -191 50 -228 -1 -34 -2 -33 -10 13 -11 69 -19 106
-26 130 -4 11 -7 22 -8 25 -5 23 -20 63 -41 103 -14 26 -23 47 -20 47 4 0 -13
28 -36 62 -51 75 -138 163 -203 206 -27 18 -43 32 -36 32 7 0 27 -11 45 -24z
m391 14 c-3 -5 -12 -10 -18 -10 -7 0 -6 4 3 10 19 12 23 12 15 0z m820 1 c-3
-5 -1 -12 5 -16 15 -9 12 -25 -5 -25 -9 0 -15 9 -15 25 0 14 5 25 11 25 5 0 8
-4 4 -9z m-558 -33 c-3 -7 -5 -2 -5 12 0 14 2 19 5 13 2 -7 2 -19 0 -25z m177
-1 c40 -37 51 -44 62 -40 7 2 14 -3 17 -10 7 -19 -33 -11 -50 10 -6 8 -20 16
-30 18 -10 2 -18 4 -18 5 0 8 -62 7 -78 -1 -13 -8 -22 -8 -30 0 -8 8 -8 11 1
11 7 0 12 6 12 14 0 32 76 28 114 -7z m316 12 c0 -6 -4 -7 -10 -4 -5 3 -10 11
-10 16 0 6 5 7 10 4 6 -3 10 -11 10 -16z m-2210 7 c0 -2 -7 -6 -15 -10 -8 -3
-15 -1 -15 4 0 6 7 10 15 10 8 0 15 -2 15 -4z m1745 -36 c-3 -5 -14 -10 -23
-10 -15 0 -15 2 -2 10 20 13 33 13 25 0z m-40 -28 c-3 -3 -11 0 -18 7 -9 10
-8 11 6 5 10 -3 15 -9 12 -12z m-45 -17 c-7 -8 -22 -14 -34 -14 -19 2 -19 2 2
6 13 3 26 11 29 19 3 8 8 13 11 10 3 -3 -1 -12 -8 -21z m-90 -14 c0 -14 -29
-21 -36 -9 -4 6 -3 8 4 4 6 -3 13 -2 17 4 8 12 15 13 15 1z m150 -1 c0 -5 -2
-10 -4 -10 -3 0 -8 5 -11 10 -3 6 -1 10 4 10 6 0 11 -4 11 -10z m336 -8 c1 -7
0 -8 -2 -3 -3 6 -12 7 -21 4 -11 -4 -14 -3 -9 6 9 14 29 10 32 -7z m-586 -10
c7 -9 7 -9 -2 -2 -8 7 -18 4 -30 -7 -10 -9 -18 -13 -18 -9 0 4 -7 0 -16 -8 -8
-9 -21 -16 -27 -15 -8 0 -7 2 1 6 7 3 17 16 22 28 7 18 16 23 35 21 14 -2 30
-8 35 -14z m50 8 c0 -5 -7 -10 -15 -10 -8 0 -15 5 -15 10 0 6 7 10 15 10 8 0
15 -4 15 -10z m577 -5 c0 -8 -6 -15 -14 -15 -17 0 -17 17 0 23 6 3 12 6 13 6
0 1 1 -6 1 -14z m160 -7 c20 -7 32 -17 29 -25 -3 -7 2 -19 10 -28 9 -8 12 -15
8 -15 -3 0 -1 -7 6 -15 7 -8 10 -15 6 -15 -4 0 1 -11 10 -25 15 -24 15 -25 -2
-25 -14 0 -19 8 -20 32 -1 17 -9 37 -18 43 -9 7 -16 17 -16 24 0 6 -9 11 -20
11 -11 0 -20 5 -20 11 0 5 5 7 10 4 6 -3 10 -1 10 5 0 6 -10 15 -22 20 -34 13
-9 12 29 -2z m-988 -38 c23 -22 39 -40 34 -40 -4 0 0 -5 10 -11 14 -9 22 -7
32 8 17 22 19 10 4 -19 -8 -15 -8 -23 2 -32 9 -8 10 -8 5 2 -4 6 -4 17 0 24 5
8 10 6 14 -8 4 -10 4 -24 -1 -30 -13 -16 9 -70 34 -83 12 -6 14 -9 5 -7 -12 3
-15 1 -11 -9 3 -8 9 -13 13 -10 4 3 10 -2 14 -10 3 -8 1 -17 -5 -21 -6 -3 -3
-11 8 -20 10 -7 13 -14 7 -14 -6 0 -9 -10 -7 -24 3 -13 0 -27 -7 -31 -8 -5 -8
-10 1 -21 8 -10 8 -14 0 -14 -6 0 -13 12 -17 28 -3 15 -16 57 -29 95 -15 44
-19 67 -11 68 7 0 7 2 -2 6 -6 2 -10 9 -6 14 3 5 0 9 -6 9 -6 0 -8 5 -5 10 3
6 2 10 -3 10 -5 0 -22 24 -37 53 -16 28 -31 54 -34 57 -15 13 -54 60 -50 60 3
0 24 -18 48 -40z m917 24 c-22 -16 -36 -18 -36 -6 0 13 7 18 32 19 22 2 22 1
4 -13z m164 6 c0 -5 -5 -10 -11 -10 -5 0 -7 5 -4 10 3 6 8 10 11 10 2 0 4 -4
4 -10z m170 6 c0 -2 -7 -7 -16 -10 -8 -3 -12 -2 -9 4 6 10 25 14 25 6z m-1190
-16 c0 -5 -2 -10 -4 -10 -3 0 -8 5 -11 10 -3 6 -1 10 4 10 6 0 11 -4 11 -10z
m527 -32 c-3 -8 -6 -5 -6 6 -1 11 2 17 5 13 3 -3 4 -12 1 -19z m30 7 c0 -8 -4
-12 -9 -9 -5 3 -6 10 -3 15 9 13 12 11 12 -6z m140 -57 c-3 -8 -6 -5 -6 6 -1
11 2 17 5 13 3 -3 4 -12 1 -19z m381 -33 c-18 -25 -36 -51 -39 -58 -3 -6 -14
-28 -23 -47 -19 -37 -44 -109 -52 -150 -2 -14 -10 -38 -16 -55 -14 -34 -17
-244 -5 -292 6 -21 5 -33 -1 -33 -29 0 -27 303 3 360 8 16 14 30 11 30 -2 0 4
27 15 60 20 66 72 164 106 204 37 42 37 30 1 -19z m-751 3 c-3 -8 -6 -5 -6 6
-1 11 2 17 5 13 3 -3 4 -12 1 -19z m118 12 c3 -5 1 -10 -4 -10 -6 0 -11 5 -11
10 0 6 2 10 4 10 3 0 8 -4 11 -10z m495 -10 c0 -5 -2 -10 -4 -10 -3 0 -8 5
-11 10 -3 6 -1 10 4 10 6 0 11 -4 11 -10z m-537 -29 c3 -11 0 -25 -7 -30 -8
-7 -11 0 -11 24 0 35 9 38 18 6z m78 -24 c-8 -8 -11 -7 -11 4 0 20 13 34 18
19 3 -7 -1 -17 -7 -23z m446 7 c2 -13 1 -15 -4 -4 -3 8 -11 19 -17 23 -7 6 -6
7 4 4 8 -2 16 -12 17 -23z m38 16 c3 -5 1 -10 -4 -10 -6 0 -11 5 -11 10 0 6 2
10 4 10 3 0 8 -4 11 -10z m-517 -54 c-4 -41 -13 -30 -13 14 0 23 3 34 7 26 4
-8 7 -26 6 -40z m379 32 c-3 -8 -6 -5 -6 6 -1 11 2 17 5 13 3 -3 4 -12 1 -19z
m615 -18 c-3 -31 -3 -31 -50 -37 -43 -6 -54 2 -45 35 6 23 23 30 68 28 25 -2
30 -6 27 -26z m-1367 10 c3 -5 -1 -10 -9 -10 -9 0 -16 5 -16 10 0 6 4 10 9 10
6 0 13 -4 16 -10z m1488 -4 c9 -24 -17 -38 -39 -21 -16 13 -17 16 -4 25 21 14
37 12 43 -4z m-1133 0 c0 -3 -4 -8 -10 -11 -5 -3 -10 -1 -10 4 0 6 5 11 10 11
6 0 10 -2 10 -4z m-1880 -31 c10 -13 9 -15 -9 -15 -12 0 -21 6 -21 15 0 8 4
15 9 15 5 0 14 -7 21 -15z m1745 5 c3 -5 1 -10 -4 -10 -6 0 -11 5 -11 10 0 6
2 10 4 10 3 0 8 -4 11 -10z m240 -1 c-4 -5 1 -19 11 -30 9 -10 12 -19 7 -19
-6 0 -14 7 -17 16 -3 8 -9 13 -14 10 -4 -2 -9 4 -9 15 -1 11 5 19 13 19 8 0
12 -5 9 -11z m319 -38 c-6 -6 -11 1 -18 29 l-7 25 15 -25 c8 -14 12 -27 10
-29z m-1479 19 c11 -17 -5 -32 -21 -19 -7 6 -11 15 -8 20 7 12 21 11 29 -1z
m-863 -52 c-6 -6 -7 0 -4 19 5 21 7 23 10 9 2 -10 0 -22 -6 -28z m1898 21 c0
-6 -4 -7 -10 -4 -5 3 -10 11 -10 16 0 6 5 7 10 4 6 -3 10 -11 10 -16z m90 -19
c11 17 13 1 4 -25 -6 -14 -10 -13 -30 11 -13 15 -24 32 -24 38 0 6 9 0 20 -14
17 -21 21 -23 30 -10z m247 -2 c-3 -7 -5 -2 -5 12 0 14 2 19 5 13 2 -7 2 -19
0 -25z m1303 -18 c0 -6 -5 -10 -12 -10 -6 0 -8 3 -5 7 4 3 -1 12 -11 20 -15
13 -15 13 6 3 12 -6 22 -15 22 -20z m-1572 -29 c-2 -10 5 -16 19 -17 12 -1 29
-4 39 -8 13 -5 15 -4 5 7 -8 11 -7 18 8 31 18 16 19 16 16 -29 -3 -35 0 -47
14 -55 10 -5 22 -6 26 -2 5 4 5 2 1 -5 -9 -17 -56 5 -57 26 0 12 -2 12 -6 3
-5 -13 43 -72 59 -72 4 0 8 8 8 17 0 16 1 16 18 0 14 -14 14 -19 4 -26 -11 -7
-11 -9 0 -14 8 -3 15 0 15 6 0 7 3 23 6 37 4 14 4 19 1 12 -4 -9 -14 -3 -30
19 -31 42 -30 55 1 61 20 4 34 -4 65 -35 41 -41 54 -74 24 -63 -14 5 -15 4 -5
-8 10 -12 9 -13 -9 -9 -21 6 -21 5 2 -33 21 -36 21 -37 3 -31 -20 7 -20 7 -1
-8 17 -13 18 -15 3 -15 -9 0 -17 -4 -17 -10 0 -5 6 -7 13 -4 8 3 13 -4 14 -18
0 -13 -1 -17 -4 -9 -4 11 -7 11 -14 0 -4 -7 -3 -21 2 -31 6 -12 6 -18 -1 -18
-5 0 -10 -7 -10 -16 0 -11 -6 -15 -17 -12 -14 4 -18 -1 -18 -24 0 -26 3 -28
25 -23 21 4 22 4 8 -5 -10 -6 -18 -19 -18 -28 1 -15 3 -14 16 3 16 19 16 19
11 -9 -3 -20 1 -34 15 -48 11 -11 17 -23 13 -26 -3 -4 -11 0 -16 8 -9 13 -10
13 -6 0 2 -8 14 -20 26 -26 14 -7 19 -14 12 -18 -7 -5 -6 -15 5 -32 11 -16 12
-24 5 -24 -7 0 -10 -4 -6 -10 3 -5 13 -6 22 -3 11 4 14 3 9 -5 -4 -7 -1 -26 8
-42 8 -17 10 -32 5 -36 -5 -3 -9 0 -9 7 0 10 -3 10 -12 1 -9 -9 -14 -6 -22 10
-6 11 -15 20 -21 20 -5 0 -21 9 -35 21 -13 12 -19 15 -12 6 9 -12 9 -20 -3
-35 -13 -18 -14 -18 -8 4 3 13 1 22 -6 22 -7 0 -9 5 -5 12 5 7 3 8 -5 4 -7 -5
-10 -14 -7 -22 3 -7 0 -16 -6 -20 -6 -4 -8 -3 -5 3 4 6 0 19 -8 29 -15 18 -15
18 -9 -1 6 -16 5 -18 -7 -7 -7 6 -22 12 -32 12 -17 0 -18 2 -6 17 12 14 10 14
-13 -1 -32 -21 -38 -4 -7 17 11 8 17 17 12 20 -12 8 -37 -15 -41 -37 -2 -10 2
-23 10 -27 10 -7 10 -9 0 -9 -7 0 -15 7 -18 15 -4 8 -12 15 -20 15 -8 0 -15 8
-15 18 -1 16 -2 16 -6 0 -5 -20 -18 -23 -28 -7 -9 13 -34 -19 -36 -46 -1 -20
-1 -20 -6 0 -6 20 -31 44 -48 45 -5 0 -3 -5 5 -10 12 -8 10 -10 -8 -10 -13 0
-21 4 -18 9 3 5 -1 12 -10 15 -9 3 -12 11 -8 18 4 7 3 10 -1 5 -5 -4 -20 3
-34 15 -14 13 -20 15 -13 6 11 -14 10 -21 -5 -44 -10 -16 -17 -29 -15 -31 4
-5 -6 -4 -34 3 -23 6 -24 8 -9 17 12 6 20 6 25 -3 5 -9 9 -9 14 -1 4 6 -1 14
-11 18 -10 4 -22 11 -26 17 -6 7 -7 4 -3 -6 3 -10 1 -18 -4 -18 -14 0 -12 27
2 36 6 4 14 2 16 -4 2 -7 8 -12 13 -12 6 0 5 8 -1 20 -6 11 -7 20 -3 20 4 0
-2 7 -13 16 -18 14 -18 15 6 9 18 -5 21 -4 11 4 -12 8 -12 12 -2 24 8 10 9 17
1 22 -18 11 8 46 32 43 12 -2 23 3 25 10 3 8 -6 12 -26 12 -29 0 -30 2 -19 20
7 11 21 20 30 20 10 0 18 4 18 9 0 13 -27 21 -47 14 -12 -4 -9 1 7 15 l25 21
-22 1 c-13 0 -23 5 -23 10 0 6 4 10 10 10 6 0 6 9 -1 26 -9 26 -6 38 12 40 23
3 23 6 -1 20 -19 11 -20 14 -5 10 24 -6 58 12 38 21 -18 7 -16 23 3 23 10 0
14 6 11 15 -4 8 -2 17 2 20 5 2 11 -5 14 -17 4 -12 1 -26 -6 -30 -19 -12 0
-20 21 -9 15 8 23 7 32 -4 6 -8 9 -19 5 -25 -3 -5 2 -10 14 -10 23 0 41 22 23
28 -7 2 -12 8 -12 13 0 6 5 7 12 3 8 -5 9 0 6 14 -4 12 -2 22 4 22 6 0 8 10 4
24 -3 13 1 36 9 52 7 15 12 31 9 36 -3 4 0 8 6 8 7 0 10 -7 6 -15 -3 -8 -1
-15 4 -15 15 0 12 26 -5 40 -25 21 -17 32 10 14 14 -9 24 -24 23 -33z m142 7
c0 -15 -15 -8 -28 12 -12 19 -11 20 8 8 11 -7 20 -16 20 -20z m1415 -6 c-7 -8
-35 7 -35 18 0 6 7 6 20 -2 10 -7 17 -14 15 -16z m-2211 -2 c5 -5 6 -16 2 -25
-6 -16 -9 -16 -29 -2 -12 8 -24 22 -25 32 -3 14 1 16 20 10 12 -4 27 -11 32
-15z m896 10 c0 -5 -4 -10 -10 -10 -5 0 -10 5 -10 10 0 6 5 10 10 10 6 0 10
-4 10 -10z m-300 -21 c0 -18 -2 -19 -15 -5 -8 8 -15 17 -15 20 0 3 7 6 15 6 9
0 15 -9 15 -21z m318 -11 c18 -18 14 -38 -8 -38 -11 0 -20 5 -20 11 0 5 5 7
10 4 14 -9 13 8 -2 23 -7 7 -8 12 -2 12 6 0 15 -5 22 -12z m-433 -27 c3 -5 1
-12 -5 -16 -5 -3 -10 1 -10 9 0 18 6 21 15 7z m75 -1 c0 -5 -7 -7 -15 -4 -8 4
-15 8 -15 10 0 2 7 4 15 4 8 0 15 -4 15 -10z m-257 -56 c-7 -19 25 -24 32 -6
6 15 8 15 15 -3 13 -32 11 -55 -5 -55 -8 0 -15 7 -15 15 0 8 -7 15 -15 15 -19
0 -34 37 -27 64 5 20 5 20 12 0 4 -10 5 -24 3 -30z m-36 4 c-3 -8 -6 -5 -6 6
-1 11 2 17 5 13 3 -3 4 -12 1 -19z m323 12 c0 -5 -5 -10 -11 -10 -5 0 -7 5 -4
10 3 6 8 10 11 10 2 0 4 -4 4 -10z m622 -65 c-5 -30 13 -34 21 -5 7 28 28 25
23 -2 -2 -16 -11 -24 -29 -26 -15 -2 -27 -8 -27 -13 0 -18 28 -39 52 -40 l23
-2 -22 -4 c-25 -5 -25 -5 -17 -27 8 -20 24 -21 24 -1 0 8 7 15 15 15 28 0 15
-28 -16 -35 -23 -5 -45 -1 -80 16 -45 21 -63 39 -39 39 6 0 10 -4 10 -10 0 -5
15 -10 33 -10 27 1 29 2 14 11 -9 6 -15 14 -12 20 4 5 -2 9 -12 9 -16 1 -17 2
-2 13 9 7 20 27 23 45 9 37 26 44 18 7z m-858 -51 c10 -26 7 -46 -6 -42 -7 3
-13 17 -13 31 -1 30 10 36 19 11z m583 -76 c-3 -7 -5 -2 -5 12 0 14 2 19 5 13
2 -7 2 -19 0 -25z m-2300 -45 c-3 -10 -5 -2 -5 17 0 19 2 27 5 18 2 -10 2 -26
0 -35z m623 37 c0 -5 -4 -10 -10 -10 -5 0 -10 5 -10 10 0 6 5 10 10 10 6 0 10
-4 10 -10z m985 -42 c-4 -24 -11 -50 -16 -58 -9 -15 -7 12 7 73 9 43 16 31 9
-15z m1017 0 c-7 -7 -12 -8 -12 -2 0 14 12 26 19 19 2 -3 -1 -11 -7 -17z
m-382 -12 c0 -2 -7 -6 -15 -10 -8 -3 -15 -1 -15 4 0 6 7 10 15 10 8 0 15 -2
15 -4z m203 -125 c-6 -8 -11 5 -17 44 l-6 40 13 -40 c8 -22 12 -42 10 -44z
m-863 28 c-12 -41 -24 -53 -14 -14 7 32 13 45 19 45 2 0 0 -14 -5 -31z m928
-46 c16 -60 88 -213 101 -213 4 0 14 -14 22 -32 21 -51 151 -173 172 -161 7 3
9 3 5 -2 -17 -18 112 -87 245 -132 74 -24 96 -27 222 -27 114 0 155 4 220 22
77 22 191 74 247 113 29 21 43 24 33 9 -13 -22 -155 -96 -235 -123 -153 -51
-371 -48 -535 8 -66 23 -216 95 -198 95 4 1 -3 7 -17 14 -14 8 -29 12 -34 9
-5 -4 -6 -2 -3 4 8 12 -38 54 -49 45 -4 -4 -4 -1 0 6 6 9 2 12 -10 10 -11 -2
-18 2 -17 8 1 6 -20 38 -46 71 -27 33 -52 70 -56 82 -4 13 -11 19 -18 15 -7
-4 -9 -4 -5 1 4 4 -1 24 -11 44 -16 32 -61 161 -61 176 0 3 4 5 8 5 4 0 14
-21 20 -47z m-916 5 c-7 -7 -12 -8 -12 -2 0 6 3 14 7 17 3 4 9 5 12 2 2 -3 -1
-11 -7 -17z m870 -53 c3 -13 1 -22 -3 -19 -9 5 -13 44 -5 44 2 0 6 -11 8 -25z
m-889 -1 c-4 -11 -8 -12 -13 -4 -5 8 -9 7 -13 -4 -3 -8 -1 -16 4 -18 6 -2 -1
-24 -15 -48 -14 -25 -26 -40 -26 -35 0 6 9 24 20 42 14 24 15 31 5 26 -19 -7
-19 7 1 35 18 26 47 30 37 6z m827 -44 c0 -5 -2 -10 -4 -10 -3 0 -8 5 -11 10
-3 6 -1 10 4 10 6 0 11 -4 11 -10z m-542 -39 c-1 -20 -7 -28 -18 -26 -8 2 -18
4 -22 4 -10 1 -6 21 7 38 18 23 35 14 33 -16z m582 25 c0 -2 -9 -6 -20 -9 -11
-3 -18 -1 -14 4 5 9 34 13 34 5z m-425 -16 c-3 -5 -12 -10 -18 -10 -7 0 -6 4
3 10 19 12 23 12 15 0z m115 -22 c0 -5 -9 -4 -20 2 -11 6 -20 12 -20 14 0 2 9
2 20 -1 11 -3 20 -9 20 -15z m-370 -8 c0 -13 -24 -18 -45 -9 -17 6 -17 8 -2 8
9 1 17 5 17 11 0 5 7 7 15 4 8 -4 15 -10 15 -14z m127 -13 c2 -17 1 -19 -7 -7
-11 17 -14 47 -3 36 4 -3 8 -17 10 -29z m43 25 c0 -13 -12 -22 -22 -16 -10 6
-1 24 13 24 5 0 9 -4 9 -8z m-438 -25 c-7 -8 -8 -18 -4 -22 4 -5 1 -5 -6 -1
-9 6 -12 2 -10 -10 2 -10 -3 -19 -9 -20 -26 -3 -28 -5 -13 -14 13 -8 13 -10
-2 -10 -10 0 -15 -5 -12 -13 5 -15 -40 -58 -59 -54 -6 1 -11 -5 -11 -14 1 -11
-7 -16 -21 -16 -21 0 -20 2 13 31 19 17 41 30 48 28 7 -1 12 5 11 15 -1 19 73
126 81 118 3 -2 0 -11 -6 -18z m758 -8 c0 -6 -4 -7 -10 -4 -5 3 -10 11 -10 16
0 6 5 7 10 4 6 -3 10 -11 10 -16z m-535 -34 c0 -14 -4 -24 -10 -22 -5 2 -10 8
-10 13 0 5 -4 14 -8 21 -4 6 -1 13 5 16 18 6 21 1 23 -28z m1088 6 c-3 -11
-11 -22 -19 -25 -8 -3 -12 -16 -9 -34 3 -26 -1 -31 -36 -45 -37 -15 -39 -14
-39 3 0 12 5 17 14 14 15 -6 59 61 53 80 -4 12 24 37 34 30 4 -2 5 -13 2 -23z
m-2698 9 c3 -5 1 -10 -4 -10 -6 0 -11 5 -11 10 0 6 2 10 4 10 3 0 8 -4 11 -10z
m80 -69 c41 -61 192 -163 319 -216 38 -16 64 -31 58 -33 -6 -2 -29 6 -51 17
-22 12 -45 21 -52 21 -6 0 -33 11 -59 24 -39 20 -48 21 -43 9 4 -11 2 -14 -5
-9 -7 4 -12 13 -12 21 0 7 -9 17 -20 20 -11 3 -20 11 -20 16 0 6 -5 7 -12 3
-7 -5 -8 -3 -3 6 5 9 2 10 -12 6 -13 -4 -25 0 -34 11 -11 15 -11 16 1 6 26
-23 34 -13 10 12 -12 13 -26 22 -30 20 -8 -5 -27 14 -30 30 -1 6 -6 9 -12 7
-5 -1 -6 2 -3 8 9 14 -34 62 -48 53 -6 -3 -7 -1 -3 5 9 15 36 -2 61 -37z
m1525 15 c8 -11 9 -16 1 -16 -6 0 -11 5 -11 12 0 18 -14 0 -17 -24 -2 -11 8
-36 22 -54 17 -22 21 -34 13 -35 -7 0 0 -6 16 -13 21 -10 25 -15 15 -20 -8 -3
-2 -4 13 -1 29 5 33 -10 9 -39 -7 -9 -10 -16 -6 -16 4 0 15 10 24 22 l18 22
18 -22 c10 -11 22 -19 27 -16 4 3 8 -2 8 -10 0 -9 5 -16 10 -16 6 0 10 -8 10
-17 0 -11 3 -14 8 -7 8 12 44 15 37 3 -3 -4 9 -16 26 -27 19 -12 27 -22 20
-26 -6 -4 -11 -3 -11 1 0 5 -8 13 -18 19 -14 9 -22 8 -37 -3 -19 -15 -19 -15
3 -8 17 5 22 2 23 -12 0 -10 3 -13 6 -5 3 8 10 5 23 -10 10 -13 26 -23 37 -23
12 0 17 -6 15 -20 -2 -11 -9 -23 -14 -26 -6 -4 -4 -8 7 -10 15 -4 15 -6 -4
-30 -11 -15 -17 -30 -13 -34 4 -5 1 -5 -6 -1 -7 5 -11 15 -7 23 5 14 3 14 -11
2 -14 -11 -17 -10 -26 4 -5 10 -14 14 -20 11 -6 -4 -8 -3 -5 2 3 6 1 16 -4 24
-8 12 -12 12 -16 3 -2 -7 -10 -13 -17 -13 -28 0 -66 -27 -78 -55 -6 -16 -14
-34 -16 -40 -2 -5 9 6 26 25 16 19 33 32 37 28 5 -4 3 -14 -4 -21 -9 -12 -6
-13 15 -9 19 3 25 1 20 -7 -4 -6 -12 -9 -17 -6 -5 3 -6 -1 -3 -9 7 -19 12 -20
29 -3 8 9 10 19 4 29 -6 11 -4 18 6 22 11 4 15 0 13 -11 -2 -9 3 -18 10 -20 7
-3 10 1 6 11 -4 11 0 16 12 16 16 0 17 -2 4 -10 -11 -7 -12 -10 -2 -10 10 0 9
-4 -3 -16 -9 -9 -19 -14 -22 -10 -4 3 -13 0 -22 -7 -21 -18 -54 -30 -46 -17 9
14 -18 12 -35 -2 -12 -11 -12 -10 -1 5 9 12 10 17 2 17 -6 0 -14 -7 -17 -15
-4 -8 -11 -12 -18 -8 -6 3 -8 3 -4 -2 4 -4 2 -17 -4 -28 -8 -17 -8 -19 5 -14
9 3 17 1 19 -5 3 -7 13 -3 26 10 19 19 22 19 20 4 -3 -42 2 -55 16 -43 11 9
16 9 22 0 4 -8 3 -9 -5 -5 -7 4 -15 -2 -20 -16 -8 -22 -9 -22 -15 10 -8 33
-19 41 -32 21 -5 -8 -8 -8 -13 0 -5 7 -20 -1 -44 -24 -21 -20 -34 -41 -31 -47
5 -8 1 -9 -10 -5 -10 4 -19 1 -22 -8 -4 -8 -13 -15 -21 -15 -17 0 -9 35 15 63
8 9 11 17 6 17 -5 0 -2 4 6 10 8 5 11 12 7 17 -9 8 -28 -17 -22 -27 2 -4 -9
-20 -26 -36 l-30 -28 23 -18 23 -19 -26 6 c-20 5 -28 2 -33 -12 -6 -14 -5 -16
5 -5 18 17 29 15 22 -5 -5 -14 -4 -16 8 -8 8 6 6 2 -4 -7 -18 -16 -15 -23 6
-19 5 1 6 -3 2 -9 -5 -8 -11 -7 -21 1 -8 6 -12 14 -10 16 2 3 -5 14 -16 25
-19 19 -19 22 -4 30 9 5 16 14 16 20 0 7 -4 7 -13 -1 -8 -6 -16 -8 -20 -5 -9
9 -48 -6 -42 -17 3 -5 -1 -6 -9 -3 -10 4 -16 1 -16 -9 0 -9 -5 -19 -12 -23 -8
-5 -9 -2 -5 10 5 12 3 15 -6 9 -6 -4 -15 -8 -19 -8 -3 0 -10 -4 -15 -9 -4 -5
-3 -6 3 -3 6 4 20 0 30 -8 14 -10 15 -14 5 -15 -8 0 -23 -8 -34 -17 -20 -17
-20 -17 -14 7 6 24 5 23 -18 -5 -19 -24 -26 -27 -34 -16 -12 18 -1 53 15 47 7
-3 18 3 26 12 9 11 10 14 1 8 -19 -11 -16 9 4 25 11 10 14 10 9 2 -4 -7 -3
-13 1 -13 15 0 33 23 32 39 0 11 -2 12 -6 4 -2 -7 -10 -13 -16 -13 -7 1 -1 10
12 20 13 11 20 20 17 20 -4 0 -2 9 4 20 6 11 16 18 21 14 6 -3 3 -12 -8 -20
-14 -10 -15 -13 -3 -14 11 0 11 -3 2 -12 -7 -7 -12 -17 -12 -22 0 -6 7 -2 15
8 8 10 12 23 8 29 -3 5 4 6 18 2 16 -4 19 -3 11 3 -10 7 -10 11 3 22 8 7 15 9
15 5 0 -5 10 0 22 11 22 19 23 19 8 -1 -8 -11 -19 -23 -25 -27 -7 -5 -7 -8 0
-9 75 -10 78 -9 86 29 2 10 36 33 46 31 21 -4 31 3 41 26 11 24 10 25 -7 15
-33 -17 -46 -12 -26 10 10 11 13 20 7 20 -6 0 -12 -5 -14 -12 -2 -6 -9 -8 -16
-4 -9 5 -8 13 4 32 10 15 12 24 5 24 -6 0 -11 -4 -11 -10 0 -5 -12 -21 -27
-36 -22 -20 -23 -24 -7 -15 21 10 34 6 34 -10 0 -5 -7 -6 -15 -3 -8 4 -15 1
-15 -6 0 -6 5 -8 10 -5 14 8 13 -18 -1 -32 -18 -18 -38 -5 -31 20 5 20 4 21
-13 7 -11 -8 -16 -10 -11 -3 9 16 -22 6 -46 -15 -9 -8 -32 -15 -50 -17 -36 -2
-57 -8 -105 -32 -37 -18 -44 -34 -13 -26 19 5 20 3 9 -20 l-12 -25 -26 28
c-30 32 -66 46 -76 30 -4 -6 -4 -14 0 -18 4 -4 10 -2 12 4 5 14 43 6 43 -8 0
-6 -7 -8 -15 -4 -8 3 -14 0 -12 -6 1 -6 -4 -13 -10 -15 -7 -3 -13 0 -13 6 0
17 -27 13 -34 -4 -3 -9 -18 -15 -35 -15 -23 0 -29 4 -25 15 5 12 2 12 -25 -1
-17 -8 -35 -13 -40 -9 -6 3 -15 -4 -21 -15 -13 -23 -45 -28 -36 -5 4 10 -1 15
-15 15 -11 0 -22 -7 -25 -15 -4 -8 -19 -15 -35 -15 -22 0 -27 4 -22 17 4 11 3
14 -5 9 -7 -4 -12 -3 -12 3 0 5 5 13 10 16 6 3 10 1 10 -4 0 -15 13 -14 36 5
10 8 12 12 4 8 -10 -5 -9 -1 3 14 11 11 16 25 12 31 -3 6 0 8 8 5 8 -3 18 -1
22 5 3 6 16 11 28 11 17 -1 13 -5 -18 -22 -35 -19 -38 -22 -20 -29 17 -6 17
-8 3 -8 -10 -1 -18 -6 -18 -12 0 -6 7 -8 16 -5 9 3 20 6 25 6 5 0 9 6 9 13 0
7 16 30 34 51 29 31 41 37 68 34 25 -2 36 2 43 17 12 22 37 27 41 7 1 -7 0 -8
-3 -2 -7 16 -33 -8 -33 -31 0 -11 -4 -19 -10 -19 -5 0 -10 5 -10 10 0 15 -33
12 -56 -4 -16 -13 -17 -17 -5 -28 8 -7 11 -8 8 -3 -3 6 3 17 15 24 18 11 19
10 13 -8 -6 -19 -4 -20 17 -12 13 4 29 6 36 4 7 -3 24 7 39 21 14 14 22 26 17
27 -5 0 1 4 14 9 14 6 22 17 20 27 -2 10 5 19 19 22 13 3 32 14 43 24 30 26
45 21 26 -9 -10 -14 -15 -31 -13 -37 2 -7 18 12 36 41 18 28 37 49 43 46 10
-6 28 12 28 29 0 4 -14 7 -31 7 -16 0 -28 4 -25 8 2 4 -7 7 -21 6 -13 0 -28
-6 -32 -12 -9 -14 -101 -53 -111 -47 -4 3 -25 -9 -46 -27 -30 -24 -34 -30 -16
-25 12 3 20 2 17 -3 -6 -9 -53 -19 -60 -12 -2 3 7 16 21 29 19 17 21 23 9 23
-9 0 -24 8 -33 17 -16 16 -16 16 1 10 10 -4 17 -2 17 6 0 7 14 13 31 14 18 1
39 9 49 18 9 8 23 15 31 16 11 0 11 2 1 6 -7 3 -22 -3 -33 -13 -17 -16 -19
-16 -19 -1 0 10 7 17 15 17 8 0 15 8 15 18 0 10 3 13 8 7 12 -18 52 -16 45 1
-3 8 3 22 13 30 11 9 13 13 7 9 -7 -3 -13 -1 -13 4 0 18 19 12 43 -12 21 -20
26 -21 48 -9 24 13 24 14 -6 8 -27 -6 -28 -5 -12 8 13 10 15 15 5 18 -7 3 2 8
20 12 17 4 32 12 32 17 0 6 4 7 10 4 5 -3 7 0 4 8 -8 22 -42 28 -49 9 -5 -14
-7 -14 -15 -2 -7 11 -10 8 -15 -12 -4 -15 -12 -25 -19 -22 -7 3 -24 0 -39 -5
-21 -8 -25 -7 -20 4 3 8 13 15 22 15 9 0 22 5 29 12 7 7 12 8 12 4 0 -5 10 3
21 18 17 21 27 26 45 22 14 -4 24 -2 24 4 0 7 8 9 20 5 12 -4 20 -2 20 5 0 6
4 9 9 6 5 -3 14 1 21 9 9 10 9 15 1 15 -6 0 -11 -5 -11 -11 0 -5 -5 -7 -11 -3
-8 4 -3 12 12 20 18 10 20 13 7 14 -10 0 -26 -10 -38 -22 -11 -12 -20 -18 -20
-13 0 5 -6 0 -14 -11 -15 -19 -15 -19 -12 1 2 13 20 28 50 43 32 15 46 27 42
37 -3 8 3 16 14 20 10 3 24 13 32 22 11 15 11 16 -6 9 -15 -5 -12 0 8 19 16
15 25 32 22 40 -3 8 -1 15 4 15 6 0 9 3 9 8 -4 26 24 20 51 -12z m-1615 -6 c3
-5 1 -10 -4 -10 -6 0 -11 5 -11 10 0 6 2 10 4 10 3 0 8 -4 11 -10z m2331 -25
c9 -14 21 -22 28 -18 6 3 8 3 4 -2 -4 -4 -3 -14 3 -21 6 -8 9 -20 6 -28 -4
-10 4 -18 21 -25 22 -8 24 -10 7 -11 -17 -2 -16 -3 5 -10 23 -7 23 -8 3 -9
-30 -1 -36 -15 -14 -35 15 -13 18 -14 18 -1 0 8 -4 12 -8 9 -4 -2 -10 0 -14 6
-13 21 45 9 68 -14 14 -14 23 -27 21 -29 -3 -2 9 -7 26 -10 17 -4 33 -15 37
-24 10 -28 32 -45 44 -37 8 4 9 3 5 -4 -4 -7 -2 -12 4 -12 6 0 8 -5 5 -10 -6
-10 51 -37 67 -32 4 1 5 -4 3 -11 -5 -14 19 -49 31 -46 14 3 44 -12 44 -23 0
-5 -5 -6 -11 -2 -6 3 -15 1 -19 -6 -8 -13 -53 24 -58 50 -2 8 -8 20 -14 25 -6
6 -6 1 1 -12 10 -20 9 -23 -7 -23 -10 0 -27 7 -38 15 -28 21 -51 19 -24 -3
l22 -18 -36 1 c-34 2 -35 1 -19 -17 9 -10 22 -18 30 -18 7 0 13 -5 13 -10 0
-6 6 -10 13 -8 22 4 61 -14 91 -41 l29 -26 -21 31 c-12 17 -35 37 -52 44 -31
13 -41 40 -14 40 8 0 13 -4 10 -8 -5 -9 19 -24 58 -36 11 -4 16 -12 12 -21 -4
-11 3 -19 22 -27 15 -7 34 -18 43 -25 8 -7 29 -15 45 -17 43 -6 76 -21 109
-53 28 -27 95 -43 95 -22 0 11 22 8 31 -4 8 -11 -1 -57 -12 -57 -4 0 -11 5
-14 10 -9 15 -35 12 -29 -3 7 -20 -54 -9 -90 16 -20 14 -30 17 -35 8 -6 -9
-11 -8 -21 3 -7 9 -15 14 -19 12 -4 -3 -13 0 -21 5 -10 6 -2 7 24 4 38 -4 39
-4 18 11 -13 8 -31 13 -42 9 -10 -3 -29 -1 -40 5 -20 11 -21 10 -10 -10 6 -11
22 -25 36 -30 32 -12 31 -22 -1 -14 -16 4 -25 2 -25 -6 0 -7 -11 -4 -27 8 -16
11 -46 22 -69 24 -23 3 -46 8 -53 12 -20 13 -11 -15 12 -35 20 -17 20 -18 2
-12 -18 6 -19 5 -5 -12 13 -16 13 -18 0 -13 -8 2 -15 11 -15 19 -1 8 -6 24
-13 37 -9 15 -9 22 -2 22 6 0 8 5 3 13 -4 6 5 4 20 -6 15 -9 27 -14 27 -9 0 5
-18 20 -40 35 -23 14 -38 22 -35 17 3 -6 -1 -10 -9 -10 -9 0 -16 5 -16 10 0 6
-5 10 -11 10 -5 0 -8 -4 -5 -8 2 -4 1 -14 -3 -20 -6 -9 -17 -4 -41 20 -26 27
-30 29 -20 9 14 -28 97 -111 111 -111 5 0 9 -7 9 -15 0 -9 11 -20 24 -24 22
-9 41 -36 37 -54 0 -4 6 -10 14 -13 8 -3 12 -10 9 -15 -3 -5 -23 3 -46 17 -22
14 -37 20 -33 12 4 -7 -2 -2 -13 11 -10 13 -24 21 -30 17 -6 -3 -14 0 -19 7
-4 8 -25 17 -46 21 -29 5 -37 4 -32 -4 6 -9 2 -9 -14 -1 -11 7 -21 16 -21 21
0 6 -5 10 -11 10 -8 0 -8 -4 0 -14 6 -7 9 -21 5 -29 -4 -11 5 -23 28 -37 l33
-20 -27 0 c-16 0 -28 -4 -28 -8 0 -5 -7 -9 -14 -9 -12 0 -13 5 -4 20 8 17 6
23 -13 38 -15 12 -19 19 -10 19 11 0 10 5 -4 20 -9 10 -17 30 -17 43 0 13 -10
29 -22 37 -21 13 -21 13 -2 -9 23 -25 15 -27 -20 -4 -25 16 -26 16 -22 -8 2
-15 -2 -23 -9 -22 -7 2 -10 -4 -7 -15 5 -14 3 -14 -10 2 -21 25 -20 37 0 29
14 -5 13 -3 -2 15 -18 22 -51 31 -39 12 4 -6 10 -8 15 -5 4 3 8 -5 7 -18 0
-12 3 -29 7 -38 5 -10 2 -16 -8 -16 -8 0 -13 4 -10 9 3 5 -2 25 -11 44 -9 20
-14 38 -11 42 3 3 -2 14 -11 25 -10 11 -12 17 -5 13 11 -6 17 5 13 26 0 4 6 5
15 1 13 -5 13 -7 2 -14 -11 -7 -11 -9 1 -9 7 0 11 -6 8 -15 -4 -8 -2 -17 2
-20 5 -3 11 2 15 10 8 22 25 18 36 -7 13 -33 12 -7 -1 30 -6 18 -16 29 -22 25
-6 -3 -7 -1 -3 5 5 8 -2 12 -21 12 -16 0 -35 6 -43 13 -11 9 -11 8 0 -7 19
-24 19 -22 -5 -40 -25 -19 -36 -20 -33 -3 2 8 -8 12 -29 11 -20 0 -30 3 -27
11 3 7 16 10 30 7 14 -2 24 0 24 7 0 7 5 9 10 6 6 -3 10 -2 10 3 0 6 -11 13
-25 16 -14 4 -24 12 -22 19 1 7 -11 13 -27 15 -18 2 -26 0 -21 -7 3 -6 1 -11
-4 -11 -6 0 -11 -9 -11 -20 0 -11 -4 -20 -9 -20 -5 0 -8 8 -7 17 0 11 -13 24
-36 35 -38 18 -53 33 -21 21 13 -5 15 -2 10 12 -6 15 -5 16 8 5 8 -7 22 -10
30 -6 17 6 21 -9 5 -19 -12 -7 -4 -25 11 -25 6 0 8 3 6 8 -6 9 13 26 35 30 24
4 58 -15 58 -33 0 -7 9 -13 19 -12 13 1 17 5 11 12 -5 6 -5 17 -1 24 7 11 10
9 15 -7 4 -11 14 -23 22 -26 12 -5 12 -1 -3 24 -9 17 -22 30 -28 31 -22 1 -47
8 -52 13 -3 3 -15 0 -26 -6 -17 -9 -19 -8 -14 6 3 8 1 18 -5 22 -7 4 -8 3 -4
-4 4 -7 2 -12 -4 -12 -6 0 -8 -4 -5 -10 3 -5 1 -10 -5 -10 -6 0 -8 11 -6 26 3
17 1 24 -7 21 -7 -3 -11 -8 -10 -13 2 -15 -25 -35 -32 -24 -3 6 -1 10 4 10 6
0 11 9 11 20 0 11 5 20 11 20 8 0 9 4 0 13 -6 8 -7 17 -3 21 4 4 2 6 -5 4 -6
-2 -11 0 -12 5 -3 21 0 28 12 26 28 -3 39 2 33 16 -3 8 -1 15 5 15 6 0 8 3 6
8 -2 4 6 18 19 32 17 17 24 20 25 10 0 -8 5 -4 10 9 9 23 10 24 24 5 13 -18
14 -18 8 4 -4 18 -2 21 13 15 14 -5 16 -3 11 11 -6 15 -3 17 17 12 20 -5 23
-3 19 14 -3 13 0 20 8 20 11 0 11 2 -1 10 -13 8 -12 10 3 10 10 0 16 4 13 9
-3 4 6 6 19 3 15 -2 25 0 25 7 0 6 -5 11 -12 11 -6 0 -3 9 8 21 16 17 16 22 4
29 -10 7 -11 10 -3 10 7 0 20 -11 29 -25z m400 -5 c16 0 8 -26 -10 -33 -8 -3
-12 6 -13 27 -1 17 1 25 3 19 3 -7 12 -13 20 -13z m-2726 -30 c0 -5 -7 -10
-15 -10 -8 0 -15 5 -15 10 0 6 7 10 15 10 8 0 15 -4 15 -10z m1220 -44 c0 -2
-7 -7 -16 -10 -8 -3 -12 -2 -9 4 6 10 25 14 25 6z m-44 -25 c-8 -13 -145 -91
-159 -91 -7 0 -24 -6 -39 -14 -15 -8 -42 -17 -60 -20 -21 -4 -12 2 27 18 84
34 102 42 170 80 72 40 67 38 61 27z m2544 -6 c-7 -8 -17 -15 -23 -15 -6 0 -2
7 9 15 25 19 30 19 14 0z m-15 -45 c-10 -11 -21 -17 -24 -14 -3 3 3 12 13 20
28 20 32 17 11 -6z m-1215 -5 c6 -8 17 -13 22 -12 6 1 13 -4 15 -10 7 -20 -10
-15 -47 12 -20 15 -28 25 -18 25 8 0 21 -7 28 -15z m1165 -31 c-28 -21 -55
-36 -55 -29 0 6 62 45 70 45 3 -1 -4 -8 -15 -16z m-3655 -4 c0 -6 -6 -13 -14
-16 -8 -3 -12 -13 -9 -25 7 -26 21 -33 38 -19 25 20 17 -5 -10 -34 -29 -31
-32 -46 -10 -46 12 0 9 -7 -10 -27 -14 -15 -25 -31 -25 -35 0 -5 -6 -8 -13 -8
-9 0 -14 17 -15 55 -1 30 2 55 7 55 5 0 12 25 16 55 5 45 10 55 26 55 10 0 19
-5 19 -10z m380 -26 c47 -19 72 -32 55 -29 -29 6 -156 63 -145 64 3 1 44 -15
90 -35z m3350 -9 c0 -6 -49 4 -64 13 -5 3 -1 11 8 18 15 10 21 9 37 -7 10 -10
19 -21 19 -24z m-2714 10 c-11 -8 -25 -15 -30 -15 -6 1 0 7 14 15 32 19 40 18
16 0z m1050 -7 c-1 -13 -6 -22 -9 -20 -4 1 -11 2 -17 2 -5 0 -10 5 -10 11 0 5
4 8 9 5 5 -3 11 1 15 9 8 23 16 18 12 -7z m-1501 -17 c26 -6 31 -9 15 -9 -14
-1 -43 3 -65 7 -26 6 -31 9 -15 9 14 1 43 -3 65 -7z m204 -12 c-8 -5 -48 -8
-89 -7 -69 1 -71 2 -25 7 85 10 130 10 114 0z m-266 -6 c-7 -2 -19 -2 -25 0
-7 3 -2 5 12 5 14 0 19 -2 13 -5z m347 -10 c-66 -17 -262 -20 -305 -4 -27 10
-26 10 15 5 63 -9 229 -6 270 5 19 5 44 9 55 9 11 0 -5 -7 -35 -15z m1190 -43
c0 -5 -6 -7 -14 -4 -11 4 -13 -1 -10 -18 4 -21 4 -21 -5 -3 -5 12 -5 25 1 32
11 13 28 8 28 -7z m-800 0 c0 -5 -5 -10 -11 -10 -5 0 -7 5 -4 10 3 6 8 10 11
10 2 0 4 -4 4 -10z m758 -35 c-3 -3 -9 2 -12 12 -6 14 -5 15 5 6 7 -7 10 -15
7 -18z m1819 3 c11 -19 15 -38 18 -83 1 -22 9 -54 18 -71 31 -61 18 -164 -31
-238 -15 -22 -33 -50 -38 -61 -6 -11 -14 -19 -18 -17 -3 1 -20 2 -36 2 -20 0
-33 6 -37 18 -3 9 -13 25 -21 35 -20 23 -11 30 44 33 26 2 51 7 57 13 8 8 8
11 0 11 -7 0 -18 12 -25 27 -9 20 -31 35 -75 53 -73 29 -84 44 -19 25 37 -11
44 -11 40 -1 -6 16 37 30 46 15 4 -5 12 2 18 16 7 15 8 25 2 25 -17 0 -11 14
20 48 17 18 30 35 30 37 0 6 -49 54 -55 55 -3 0 -46 0 -97 0 -114 0 -109 10 7
16 103 4 132 11 116 27 -6 6 -11 15 -11 19 0 13 38 9 47 -4z m-2488 -54 c-6
-8 -17 -14 -23 -14 -6 0 -3 5 7 11 9 6 14 15 11 21 -4 7 -2 8 5 4 9 -6 9 -11
0 -22z m446 6 c3 -5 -1 -10 -10 -10 -9 0 -13 5 -10 10 3 6 8 10 10 10 2 0 7
-4 10 -10z m-1804 -33 c-13 -12 -20 -15 -16 -7 14 26 28 41 33 35 3 -3 -5 -16
-17 -28z m1279 -1 c0 -2 -8 -10 -17 -17 -16 -13 -17 -12 -4 4 13 16 21 21 21
13z m41 -11 c-41 -18 -46 -19 -33 -2 6 7 23 13 39 14 28 2 27 2 -6 -12z m831
8 c-10 -4 -10 -8 0 -21 12 -15 11 -16 -4 -3 -19 14 -15 32 5 30 8 0 8 -2 -1
-6z m-1967 -23 c-3 -5 -12 -7 -20 -3 -21 7 -19 13 6 13 11 0 18 -4 14 -10z
m945 0 c0 -5 -9 -10 -20 -10 -11 0 -20 5 -20 10 0 6 9 10 20 10 11 0 20 -4 20
-10z m1635 0 c3 -6 -1 -7 -9 -4 -18 7 -21 14 -7 14 6 0 13 -4 16 -10z m-865
-28 c0 -5 -10 -17 -22 -28 l-23 -19 19 23 c11 12 14 22 8 22 -6 0 -18 -10 -26
-22 -12 -17 -13 -24 -3 -30 9 -6 9 -8 0 -8 -22 0 -23 17 -2 44 20 25 49 35 49
18z m-1524 -34 c-9 -5 -25 -7 -35 -3 -11 3 -22 1 -26 -5 -8 -13 -25 -13 -25 0
0 12 59 28 84 22 16 -4 17 -6 2 -14z m1781 -12 c-1 -6 6 -10 16 -8 9 2 17 -2
17 -8 0 -5 -5 -10 -11 -10 -8 0 -8 -5 1 -15 8 -9 8 -15 2 -15 -6 0 -14 9 -17
20 -3 11 -10 20 -15 20 -4 0 -10 6 -13 13 -3 8 1 14 8 14 8 0 13 -5 12 -11z
m-1887 -1 c0 -11 -52 -25 -63 -18 -7 5 0 10 18 14 43 9 45 10 45 4z m755 -15
c-3 -5 -14 -10 -23 -9 -14 0 -13 2 3 9 27 11 27 11 20 0z m-848 -6 c-3 -3 -12
-4 -19 -1 -8 3 -5 6 6 6 11 1 17 -2 13 -5z m2838 -32 c-6 -7 -35 18 -35 31 0
5 9 2 20 -8 11 -10 18 -20 15 -23z m-2075 8 c-39 -21 -50 -24 -50 -11 0 4 15
13 33 19 50 16 55 13 17 -8z m890 10 c0 -5 -2 -10 -4 -10 -3 0 -8 5 -11 10 -3
6 -1 10 4 10 6 0 11 -4 11 -10z m401 -12 c11 -21 11 -22 -4 -9 -14 11 -17 11
-17 1 0 -8 -2 -11 -5 -8 -5 5 4 38 11 38 2 0 9 -10 15 -22z m-660 -11 c-13
-13 -51 -17 -51 -5 0 11 42 27 53 21 5 -3 4 -10 -2 -16z m166 4 c11 10 14 10
11 -2 -2 -8 -7 -17 -13 -21 -6 -5 -5 -11 3 -16 9 -6 10 -15 3 -33 -9 -23 -15
-13 -12 21 1 11 -3 10 -14 -4 -8 -11 -17 -17 -20 -14 -3 3 1 13 10 21 16 17
20 37 6 37 -5 0 -14 -7 -21 -15 -7 -9 -15 -13 -18 -10 -3 3 6 14 19 26 14 12
25 16 27 9 3 -8 8 -7 19 1z m-1747 -11 c-8 -5 -19 -10 -25 -10 -5 0 -3 5 5 10
8 5 20 10 25 10 6 0 3 -5 -5 -10z m905 -10 c4 -6 -6 -10 -24 -10 -16 0 -82
-25 -147 -55 -64 -30 -119 -53 -122 -50 -4 4 58 35 213 105 46 21 71 24 80 10z
m1464 -3 c8 -10 7 -14 -4 -14 -8 0 -16 6 -19 14 -3 7 -2 13 3 13 5 0 14 -6 20
-13z m256 3 c3 -6 -1 -7 -9 -4 -18 7 -21 14 -7 14 6 0 13 -4 16 -10z m-420
-11 c11 -16 1 -19 -13 -3 -7 8 -8 14 -3 14 5 0 13 -5 16 -11z m55 -19 c0 -6
-9 -2 -20 7 -11 10 -20 19 -20 21 0 1 9 -2 20 -8 11 -6 20 -15 20 -20z m977 4
c25 -14 42 -28 39 -31 -3 -3 -26 9 -52 26 -57 38 -48 41 13 5z m-1437 -4 c0 8
3 11 6 7 3 -3 3 -10 0 -16 -8 -12 -36 -3 -36 11 0 6 6 5 15 -2 12 -10 15 -10
15 0z m1695 -10 c3 -5 1 -10 -4 -10 -6 0 -11 5 -11 10 0 6 2 10 4 10 3 0 8 -4
11 -10z m-1824 -12 c24 4 46 -26 30 -41 -7 -7 -12 -7 -11 -2 5 25 -1 33 -22
27 -13 -3 -26 -10 -30 -15 -3 -6 -5 1 -5 16 1 14 6 22 12 19 6 -4 17 -5 26 -4z
m692 -21 c-3 -4 -11 -6 -19 -3 -9 3 -11 0 -7 -12 8 -22 -1 -13 -17 17 -8 15
-8 21 -1 17 6 -4 11 -2 11 3 0 8 7 7 19 -1 11 -7 17 -16 14 -21z m-1803 7
c-25 -7 -52 -13 -60 -13 -21 1 60 27 85 28 11 0 0 -7 -25 -15z m1220 12 c0 -3
-4 -8 -10 -11 -5 -3 -10 -1 -10 4 0 6 5 11 10 11 6 0 10 -2 10 -4z m520 -32
c0 -14 -4 -23 -9 -20 -5 3 -7 15 -4 26 7 28 13 25 13 -6z m459 -9 c17 -19 34
-35 38 -34 4 0 9 -4 11 -9 2 -7 -11 -6 -37 0 -23 6 -41 15 -41 20 0 5 -4 7 -9
4 -4 -3 -13 6 -20 21 -11 25 -11 25 6 13 10 -8 24 -21 30 -29 7 -8 16 -12 19
-8 3 3 -6 17 -21 31 -16 15 -23 26 -17 26 5 0 24 -16 41 -35z m558 15 c27 -21
48 -27 38 -10 -3 5 23 -9 57 -31 35 -21 83 -50 108 -62 25 -13 60 -32 78 -44
19 -11 51 -24 73 -27 25 -4 39 -11 39 -21 0 -9 8 -27 17 -42 17 -25 17 -26 -7
-18 -14 5 -33 8 -43 7 -37 -2 -67 17 -67 42 0 29 -26 52 -95 85 -209 98 -267
129 -249 134 10 2 21 5 22 6 2 0 15 -8 29 -19z m-486 0 c6 0 8 -4 5 -9 -8 -12
-46 -2 -46 11 0 6 7 7 16 4 9 -3 20 -6 25 -6z m-1163 -31 c-6 -4 -8 -11 -4
-17 3 -6 2 -13 -4 -17 -6 -4 -10 6 -10 23 0 33 10 48 21 30 4 -7 3 -15 -3 -19z
m-843 12 c-6 -5 -37 -18 -70 -30 -33 -12 -69 -26 -80 -31 -11 -5 -45 -19 -75
-31 -30 -11 -59 -24 -65 -29 -5 -4 -35 -15 -65 -25 -30 -10 -99 -40 -152 -66
-54 -27 -103 -49 -110 -49 -18 0 54 50 82 57 14 3 45 16 70 29 84 44 225 102
375 154 87 31 104 35 90 21z m1588 -4 c3 -7 -3 -13 -12 -13 -10 0 -18 6 -18
13 0 7 6 13 13 13 6 0 14 -6 17 -13z m-786 -24 c1 -22 -1 -24 -8 -10 -6 9 -7
22 -4 27 9 14 10 13 12 -17z m931 2 c-3 -3 -9 2 -12 12 -6 14 -5 15 5 6 7 -7
10 -15 7 -18z m42 15 c0 -5 -2 -10 -4 -10 -3 0 -8 5 -11 10 -3 6 -1 10 4 10 6
0 11 -4 11 -10z m294 -16 c23 -23 20 -37 -6 -28 -20 6 -21 5 -9 -10 17 -20 12
-20 -27 0 -37 18 -42 29 -9 21 21 -6 21 -5 4 8 -18 13 -17 14 5 18 13 2 24 5
25 6 1 0 9 -6 17 -15z m71 6 c3 -5 1 -10 -4 -10 -6 0 -11 5 -11 10 0 6 2 10 4
10 3 0 8 -4 11 -10z m-25 -10 c0 -5 -2 -10 -4 -10 -3 0 -8 5 -11 10 -3 6 -1
10 4 10 6 0 11 -4 11 -10z m337 4 c-3 -3 -12 -4 -19 -1 -8 3 -5 6 6 6 11 1 17
-2 13 -5z m-2722 -22 c-16 -10 -48 -26 -70 -36 -22 -10 -49 -26 -60 -35 -19
-15 -19 -15 -5 2 7 10 43 34 79 52 70 36 106 47 56 17z m973 -11 c-6 -10 -20
-24 -31 -30 -19 -12 -19 -12 1 17 12 16 18 32 15 36 -4 4 0 4 9 1 14 -5 15
-10 6 -24z m-88 4 c-7 -9 -15 -13 -17 -11 -7 7 7 26 19 26 6 0 6 -6 -2 -15z
m50 -6 c0 -5 -11 -14 -25 -19 -14 -5 -27 -20 -31 -35 -3 -14 -10 -25 -14 -25
-5 0 -6 10 -2 23 5 20 4 21 -11 8 -9 -7 -17 -10 -17 -6 0 10 54 51 58 45 2 -3
8 3 13 13 10 17 29 15 29 -4z m1093 -5 c1 -4 -6 -8 -15 -10 -10 -1 -18 4 -18
12 0 9 5 12 10 9 6 -3 10 0 11 7 1 12 7 3 12 -18z m-1463 6 c-20 -13 -33 -13
-25 0 3 6 14 10 23 10 15 0 15 -2 2 -10z m2037 -109 c89 -65 148 -115 166
-139 20 -25 20 -26 2 -12 -11 7 -25 19 -30 26 -11 12 -40 35 -207 161 -54 41
-98 76 -98 79 0 4 95 -62 167 -115z m-1951 94 c-12 -9 -14 -15 -7 -15 20 0 8
-22 -17 -31 -15 -6 -22 -5 -22 4 1 16 22 42 40 50 25 9 26 7 6 -8z m-261 -4
c-6 -5 -21 -12 -35 -15 l-25 -7 25 15 c28 17 50 21 35 7z m140 -11 c-3 -5 -12
-10 -18 -10 -7 0 -6 4 3 10 19 12 23 12 15 0z m245 5 c0 -2 -10 -10 -22 -16
-21 -11 -22 -11 -9 4 13 16 31 23 31 12z m1877 -33 c43 -21 89 -45 103 -53
110 -68 130 -82 126 -86 -4 -4 -77 33 -211 107 -79 44 -117 70 -101 70 3 0 40
-17 83 -38z m-1346 5 c-10 -9 -11 -8 -5 6 3 10 9 15 12 12 3 -3 0 -11 -7 -18z
m749 7 c0 -8 -4 -12 -10 -9 -5 3 -10 10 -10 16 0 5 5 9 10 9 6 0 10 -7 10 -16z
m1091 6 c4 0 6 -7 3 -15 -8 -21 -21 -19 -35 7 -10 18 -9 20 6 15 9 -4 21 -7
26 -7z m-2831 -11 c-39 -26 -90 -48 -102 -44 -7 3 -71 -15 -142 -40 -131 -45
-156 -47 -56 -5 80 34 272 98 295 99 17 1 18 -1 5 -10z m257 -5 c-3 -3 -12 -4
-19 -1 -8 3 -5 6 6 6 11 1 17 -2 13 -5z m1557 -9 c-4 -8 -10 -12 -15 -9 -11 6
-2 24 11 24 5 0 7 -7 4 -15z m-2284 -9 c0 -2 -7 -7 -16 -10 -8 -3 -12 -2 -9 4
6 10 25 14 25 6z m3165 -17 c11 -17 -1 -21 -15 -4 -8 9 -8 15 -2 15 6 0 14 -5
17 -11z m-2795 -13 c0 -2 -45 -32 -101 -67 -55 -35 -129 -83 -165 -106 -35
-24 -64 -39 -64 -35 1 8 310 212 322 212 4 0 8 -2 8 -4z m1000 -66 c0 -5 -5
-10 -11 -10 -5 0 -7 5 -4 10 3 6 8 10 11 10 2 0 4 -4 4 -10z m91 -23 c-10 -9
-11 -8 -5 6 3 10 9 15 12 12 3 -3 0 -11 -7 -18z m33 8 c-4 -8 -8 -15 -10 -15
-2 0 -4 7 -4 15 0 8 4 15 10 15 5 0 7 -7 4 -15z m296 -17 c0 -6 -6 -5 -15 2
-8 7 -15 14 -15 16 0 2 7 1 15 -2 8 -4 15 -11 15 -16z m-437 -3 c-3 -9 -8 -14
-10 -11 -3 3 -2 9 2 15 9 16 15 13 8 -4z m-1593 -25 c-45 -39 -61 -39 -18 0
18 17 37 30 43 30 5 -1 -6 -14 -25 -30z m1741 7 c-10 -9 -11 -8 -5 6 3 10 9
15 12 12 3 -3 0 -11 -7 -18z m253 -36 c-2 -3 -12 3 -22 13 -16 17 -16 18 5 5
12 -7 20 -15 17 -18z m1766 -53 c33 -28 34 -29 5 -13 -16 9 -46 30 -65 47 -33
28 -34 29 -5 13 17 -9 46 -30 65 -47z m-4056 -354 c5 -14 4 -15 -9 -4 -17 14
-19 20 -6 20 5 0 12 -7 15 -16z m-94 -134 c0 -5 -2 -10 -4 -10 -3 0 -8 5 -11
10 -3 6 -1 10 4 10 6 0 11 -4 11 -10z m570 -90 c0 -5 -4 -10 -10 -10 -5 0 -10
5 -10 10 0 6 5 10 10 10 6 0 10 -4 10 -10z m-180 -134 c0 -2 -9 -6 -20 -9 -11
-3 -20 -1 -20 4 0 5 9 9 20 9 11 0 20 -2 20 -4z m-225 -56 c3 -5 -1 -10 -9
-10 -9 0 -16 5 -16 10 0 6 4 10 9 10 6 0 13 -4 16 -10z m250 -40 c3 -5 -1 -10
-9 -10 -8 0 -18 5 -21 10 -3 6 1 10 9 10 8 0 18 -4 21 -10z"/>
<path d="M2261 4144 c-25 -29 -40 -84 -22 -84 6 0 11 -8 11 -17 1 -16 2 -16
16 2 8 11 13 31 11 44 -3 14 -1 36 4 49 13 34 6 36 -20 6z"/>
<path d="M2312 4098 c-1 -58 11 -50 23 15 6 29 4 37 -8 37 -11 0 -15 -13 -15
-52z"/>
<path d="M2046 4124 c-5 -14 -4 -15 9 -4 17 14 19 20 6 20 -5 0 -12 -7 -15
-16z"/>
<path d="M2520 4106 c0 -8 3 -22 6 -30 5 -13 9 -14 20 -5 19 16 18 33 -2 25
-12 -4 -15 -2 -10 9 3 8 1 15 -4 15 -6 0 -10 -6 -10 -14z"/>
<path d="M2671 4086 c5 -17 9 -33 9 -36 0 -3 5 2 10 10 16 24 12 47 -9 53 -17
4 -18 1 -10 -27z"/>
<path d="M2410 4040 c0 -5 5 -10 11 -10 5 0 7 5 4 10 -3 6 -8 10 -11 10 -2 0
-4 -4 -4 -10z"/>
<path d="M2582 4030 c0 -14 2 -19 5 -12 2 6 2 18 0 25 -3 6 -5 1 -5 -13z"/>
<path d="M2550 4013 c0 -21 3 -24 9 -14 5 8 7 20 4 28 -8 21 -13 15 -13 -14z"/>
<path d="M2198 3972 c-3 -10 1 -27 8 -37 12 -16 14 -16 29 -1 15 14 15 16 1
16 -9 0 -16 6 -16 14 0 23 -17 28 -22 8z"/>
<path d="M2298 3949 c-2 -8 -2 -25 2 -39 6 -25 6 -25 14 -3 8 25 -7 66 -16 42z"/>
<path d="M1870 4100 c0 -5 5 -10 11 -10 5 0 7 5 4 10 -3 6 -8 10 -11 10 -2 0
-4 -4 -4 -10z"/>
<path d="M1881 4064 c0 -11 3 -14 6 -6 3 7 2 16 -1 19 -3 4 -6 -2 -5 -13z"/>
<path d="M1772 4040 c0 -14 2 -19 5 -12 2 6 2 18 0 25 -3 6 -5 1 -5 -13z"/>
<path d="M1791 3984 c0 -11 3 -14 6 -6 3 7 2 16 -1 19 -3 4 -6 -2 -5 -13z"/>
<path d="M1846 3965 c-3 -9 -6 -22 -5 -28 0 -7 5 -1 10 12 5 13 8 26 5 28 -2
2 -6 -3 -10 -12z"/>
<path d="M1821 3651 c-11 -7 -10 -11 7 -20 22 -12 39 0 27 19 -8 12 -16 12
-34 1z"/>
<path d="M2716 3915 c4 -8 10 -15 15 -15 5 0 9 7 9 15 0 8 -7 15 -15 15 -9 0
-12 -6 -9 -15z"/>
<path d="M2747 3862 c-22 -25 -21 -39 3 -45 16 -4 20 0 20 17 0 12 5 27 12 34
9 9 9 12 -3 12 -9 0 -23 -8 -32 -18z"/>
<path d="M2818 3683 c7 -3 16 -2 19 1 4 3 -2 6 -13 5 -11 0 -14 -3 -6 -6z"/>
<path d="M2770 2980 c0 -5 5 -10 10 -10 6 0 10 5 10 10 0 6 -4 10 -10 10 -5 0
-10 -4 -10 -10z"/>
<path d="M2750 2973 c0 -6 -3 -18 -6 -27 -4 -11 -1 -16 10 -16 9 0 16 6 16 13
0 16 -20 46 -20 30z"/>
<path d="M1816 3097 c3 -10 9 -15 12 -12 3 3 0 11 -7 18 -10 9 -11 8 -5 -6z"/>
<path d="M1900 2881 c0 -6 4 -13 10 -16 6 -3 7 1 4 9 -7 18 -14 21 -14 7z"/>
<path d="M2476 2845 c5 -12 2 -14 -12 -8 -16 6 -17 4 -7 -9 7 -8 10 -18 6 -22
-4 -4 0 -4 9 -1 9 4 19 2 23 -4 3 -6 11 -11 16 -11 6 0 3 7 -5 16 -9 8 -16 22
-16 29 0 8 -4 17 -10 20 -6 3 -7 -1 -4 -10z"/>
<path d="M2330 2845 c0 -5 5 -17 10 -25 5 -8 10 -10 10 -5 0 6 -5 17 -10 25
-5 8 -10 11 -10 5z"/>
<path d="M2310 2828 c0 -9 5 -20 10 -23 13 -8 13 5 0 25 -8 13 -10 13 -10 -2z"/>
<path d="M2284 2814 c5 -14 4 -15 -9 -4 -13 11 -14 10 -9 -4 4 -10 13 -15 20
-12 8 3 14 -1 14 -11 0 -9 2 -14 5 -11 9 9 -6 58 -17 58 -6 0 -7 -7 -4 -16z"/>
<path d="M2336 2776 c3 -9 10 -16 15 -16 5 0 14 -10 19 -22 7 -20 9 -20 9 -4
1 15 4 16 16 6 18 -15 20 -35 3 -24 -7 4 -8 3 -4 -4 10 -16 25 -15 32 2 7 17
-27 54 -44 48 -7 -2 -12 2 -12 9 0 7 -3 9 -7 6 -3 -4 -12 -2 -20 5 -11 8 -12
7 -7 -6z"/>
<path d="M2276 2743 c-6 -14 -5 -15 5 -6 7 7 10 15 7 18 -3 3 -9 -2 -12 -12z"/>
<path d="M2485 2700 c3 -5 11 -10 16 -10 6 0 7 5 4 10 -3 6 -11 10 -16 10 -6
0 -7 -4 -4 -10z"/>
<path d="M2245 2650 c3 -5 8 -10 11 -10 2 0 4 5 4 10 0 6 -5 10 -11 10 -5 0
-7 -4 -4 -10z"/>
<path d="M2170 2580 c-8 -5 -11 -12 -7 -16 4 -4 13 -2 19 4 15 15 7 24 -12 12z"/>
<path d="M2208 2569 c-10 -5 -18 -17 -18 -24 0 -17 16 -20 25 -5 4 6 11 8 16
4 5 -3 6 -11 2 -17 -4 -7 1 -5 11 2 17 14 17 15 -4 23 -12 4 -18 12 -15 18 8
12 5 12 -17 -1z"/>
<path d="M2281 2571 c-9 -6 -4 -8 18 -7 17 0 31 4 31 8 0 11 -32 10 -49 -1z"/>
<path d="M2346 2559 c5 -8 -17 -14 -38 -10 -5 0 -8 -3 -8 -7 0 -5 14 -9 30
-10 17 0 30 4 30 9 0 5 5 8 11 7 6 -2 13 2 15 7 2 6 -7 11 -21 11 -14 1 -22
-2 -19 -7z"/>
<path d="M2398 2538 c-7 -16 18 -35 30 -23 3 3 0 5 -6 5 -6 0 -12 8 -14 18 -3
15 -4 16 -10 0z"/>
<path d="M2445 2530 c3 -5 11 -10 16 -10 6 0 7 5 4 10 -3 6 -11 10 -16 10 -6
0 -7 -4 -4 -10z"/>
<path d="M2120 2512 c-35 -5 -50 -22 -19 -22 14 0 29 -3 33 -7 10 -11 56 -11
50 -1 -3 4 -11 8 -19 8 -7 0 -15 6 -17 13 -2 7 -14 11 -28 9z"/>
<path d="M2190 2512 c0 -4 9 -8 19 -8 11 0 17 4 15 8 -3 4 -12 8 -20 8 -8 0
-14 -4 -14 -8z"/>
<path d="M2377 2509 c7 -7 15 -10 18 -7 3 3 -2 9 -12 12 -14 6 -15 5 -6 -5z"/>
<path d="M2330 2456 c0 -2 8 -10 18 -17 15 -13 16 -12 3 4 -13 16 -21 21 -21
13z"/>
<path d="M2145 2441 c-3 -5 -1 -12 5 -16 5 -3 10 1 10 9 0 18 -6 21 -15 7z"/>
<path d="M2103 2433 c9 -2 17 -9 17 -14 0 -5 5 -9 11 -9 8 0 8 5 -1 15 -7 8
-20 14 -29 14 -13 -1 -13 -2 2 -6z"/>
<path d="M2250 2420 c0 -5 5 -10 11 -10 5 0 7 5 4 10 -3 6 -8 10 -11 10 -2 0
-4 -4 -4 -10z"/>
<path d="M2334 2415 c8 -8 18 -15 22 -15 3 0 1 7 -6 15 -7 8 -17 15 -22 15 -5
0 -3 -7 6 -15z"/>
<path d="M2180 2332 c0 -5 7 -9 15 -9 8 0 12 4 9 9 -3 4 -9 8 -15 8 -5 0 -9
-4 -9 -8z"/>
<path d="M2346 2325 c4 -8 11 -15 16 -15 6 0 5 6 -2 15 -7 8 -14 15 -16 15 -2
0 -1 -7 2 -15z"/>
<path d="M1625 2860 c3 -5 10 -10 16 -10 5 0 9 5 9 10 0 6 -7 10 -16 10 -8 0
-12 -4 -9 -10z"/>
<path d="M2126 2255 c-3 -8 -1 -15 4 -15 6 0 10 7 10 15 0 8 -2 15 -4 15 -2 0
-6 -7 -10 -15z"/>
<path d="M495 2070 c3 -5 8 -10 11 -10 2 0 4 5 4 10 0 6 -5 10 -11 10 -5 0 -7
-4 -4 -10z"/>
<path d="M1906 1988 c3 -5 10 -6 15 -3 13 9 11 12 -6 12 -8 0 -12 -4 -9 -9z"/>
<path d="M1945 1961 c-11 -5 -23 -7 -27 -5 -4 3 -10 -1 -14 -7 -9 -15 55 -4
70 11 12 12 0 12 -29 1z"/>
<path d="M2026 1962 c-3 -5 1 -9 9 -9 8 0 12 4 9 9 -3 4 -7 8 -9 8 -2 0 -6 -4
-9 -8z"/>
<path d="M2090 1927 c-12 -19 -11 -21 2 -10 8 7 18 10 21 6 4 -3 7 -1 7 5 0
21 -16 21 -30 -1z"/>
<path d="M1978 1928 c-2 -6 -21 -13 -41 -14 -20 -1 -34 2 -31 7 3 5 -3 6 -12
2 -11 -4 -13 -8 -6 -11 7 -2 2 -17 -14 -42 -14 -22 -24 -45 -21 -52 2 -7 11 3
19 22 17 40 37 59 67 65 29 5 27 -11 -2 -19 -14 -3 -23 -13 -23 -26 0 -15 5
-18 18 -14 22 7 24 -12 2 -20 -8 -3 -13 -10 -10 -15 4 -5 0 -12 -6 -14 -9 -4
-8 -6 2 -6 8 0 22 4 30 9 13 8 13 10 -2 10 -14 0 -12 6 10 29 27 30 58 41 78
29 6 -4 11 -1 11 7 0 8 -4 12 -9 9 -12 -8 -10 10 4 24 9 9 9 12 0 12 -6 0 -15
-6 -19 -14 -10 -17 -47 -36 -70 -36 -11 1 -6 6 14 15 25 10 30 18 26 34 -6 24
-10 26 -15 9z"/>
<path d="M1819 1900 l-24 -20 28 11 c15 7 27 16 27 21 0 12 -5 10 -31 -12z"/>
<path d="M1822 1867 c-31 -33 -27 -41 5 -11 14 13 24 26 21 29 -2 3 -14 -5
-26 -18z"/>
<path d="M2065 1870 c-3 -5 -1 -10 4 -10 6 0 11 5 11 10 0 6 -2 10 -4 10 -3 0
-8 -4 -11 -10z"/>
<path d="M2005 1848 c-4 -10 -11 -16 -15 -13 -5 3 -6 -4 -3 -16 5 -18 8 -19
20 -6 8 8 13 23 11 33 -5 18 -5 18 -13 2z"/>
<path d="M1819 1824 c-13 -15 -18 -25 -10 -22 13 4 49 48 39 48 -2 0 -15 -12
-29 -26z"/>
<path d="M1883 1833 c-3 -10 -8 -22 -10 -28 -3 -5 3 -1 11 9 16 20 21 36 11
36 -3 0 -8 -8 -12 -17z"/>
<path d="M1760 1830 c0 -5 5 -10 11 -10 5 0 7 5 4 10 -3 6 -8 10 -11 10 -2 0
-4 -4 -4 -10z"/>
<path d="M2013 1793 c-26 -18 -30 -30 -9 -30 8 0 19 11 25 24 6 13 10 23 8 22
-1 0 -12 -7 -24 -16z"/>
<path d="M2053 1775 c1 -32 2 -34 16 -20 13 13 14 17 2 24 -7 5 -10 14 -7 20
4 6 3 11 -2 11 -6 0 -10 -16 -9 -35z"/>
<path d="M2185 1801 c-3 -5 -2 -12 3 -15 5 -3 9 1 9 9 0 17 -3 19 -12 6z"/>
<path d="M1810 1779 c-19 -10 -27 -19 -18 -19 8 0 26 9 39 20 30 24 24 24 -21
-1z"/>
<path d="M1758 1783 c7 -3 16 -2 19 1 4 3 -2 6 -13 5 -11 0 -14 -3 -6 -6z"/>
<path d="M2210 1759 c0 -19 7 -32 23 -40 21 -11 21 -11 6 7 -28 32 -20 53 18
49 18 -2 35 0 38 5 2 4 -16 7 -40 7 -43 0 -45 -1 -45 -28z"/>
<path d="M1726 1763 c-6 -14 -5 -15 5 -6 7 7 10 15 7 18 -3 3 -9 -2 -12 -12z"/>
<path d="M2159 1753 c-13 -16 -12 -17 4 -4 9 7 17 15 17 17 0 8 -8 3 -21 -13z"/>
<path d="M2247 1763 c-12 -12 -7 -22 8 -17 8 4 15 10 15 15 0 11 -14 12 -23 2z"/>
<path d="M1803 1750 c-29 -12 -30 -24 -2 -15 16 5 19 4 14 -5 -6 -9 -4 -11 5
-5 9 5 10 2 5 -14 -7 -24 7 -28 25 -6 7 8 18 15 25 15 7 0 19 8 26 17 8 10 9
14 2 10 -6 -4 -14 -3 -18 3 -8 13 -25 13 -25 0 0 -5 8 -10 17 -10 9 0 14 -3
10 -6 -3 -4 -14 -3 -24 1 -10 5 -24 7 -32 6 -7 -1 -10 2 -6 8 7 13 7 13 -22 1z"/>
<path d="M1931 1723 c-10 -26 -10 -27 4 -9 8 11 15 23 15 28 0 15 -7 8 -19
-19z"/>
<path d="M2060 1706 c0 -8 -9 -21 -20 -29 -18 -13 -19 -15 -5 -21 9 -3 13 -2
10 3 -3 5 -1 12 5 16 16 10 32 45 20 45 -5 0 -10 -6 -10 -14z"/>
<path d="M1976 1693 c-6 -14 -5 -15 5 -6 7 7 10 15 7 18 -3 3 -9 -2 -12 -12z"/>
<path d="M1844 1668 l-19 -23 23 19 c21 18 27 26 19 26 -2 0 -12 -10 -23 -22z"/>
<path d="M1940 1670 c0 -5 5 -10 10 -10 6 0 10 5 10 10 0 6 -4 10 -10 10 -5 0
-10 -4 -10 -10z"/>
<path d="M1766 1654 c-11 -8 -15 -14 -10 -14 6 0 15 5 22 12 16 16 16 -4 0
-22 -7 -8 -4 -7 7 2 25 23 8 43 -19 22z"/>
<path d="M1856 1629 c-10 -19 -11 -29 -4 -27 10 4 32 58 23 58 -2 0 -10 -14
-19 -31z"/>
<path d="M1906 1634 c-5 -14 -4 -15 9 -4 17 14 19 20 6 20 -5 0 -12 -7 -15
-16z"/>
<path d="M1809 1613 c-13 -16 -12 -17 4 -4 16 13 21 21 13 21 -2 0 -10 -8 -17
-17z"/>
<path d="M1647 1581 c-11 -22 -11 -28 -2 -25 15 6 38 54 26 54 -5 0 -16 -13
-24 -29z"/>
<path d="M1792 1573 c-11 -20 -10 -21 10 -18 12 3 26 10 32 16 8 9 7 10 -6 6
-9 -3 -18 -1 -21 6 -2 7 -9 3 -15 -10z"/>
<path d="M1720 1561 c-8 -6 -19 -7 -25 -4 -5 3 -4 0 3 -8 10 -11 15 -10 29 4
19 19 16 22 -7 8z"/>
<path d="M1666 1523 c-6 -14 -5 -15 5 -6 7 7 10 15 7 18 -3 3 -9 -2 -12 -12z"/>
<path d="M2006 1528 c3 -5 10 -6 15 -3 13 9 11 12 -6 12 -8 0 -12 -4 -9 -9z"/>
<path d="M1500 1490 c-13 -8 -12 -10 3 -10 11 0 15 -5 11 -11 -4 -7 2 -7 17 1
34 18 38 24 10 15 -16 -5 -21 -4 -17 4 9 14 -4 14 -24 1z"/>
<path d="M2725 2050 c-3 -6 1 -7 9 -4 18 7 21 14 7 14 -6 0 -13 -4 -16 -10z"/>
<path d="M2658 2033 c7 -3 16 -2 19 1 4 3 -2 6 -13 5 -11 0 -14 -3 -6 -6z"/>
<path d="M2710 2014 c0 -10 6 -14 15 -10 8 3 15 1 15 -4 0 -6 5 -10 12 -10 6
0 3 9 -7 20 -22 24 -35 26 -35 4z"/>
<path d="M2690 1980 c-8 -5 -10 -10 -5 -10 6 0 17 5 25 10 8 5 11 10 5 10 -5
0 -17 -5 -25 -10z"/>
<path d="M2643 1963 c9 -2 17 -9 17 -14 0 -5 8 -9 18 -9 15 1 15 2 -2 15 -11
8 -27 14 -35 14 -13 -1 -12 -2 2 -6z"/>
<path d="M2725 1950 c17 -19 17 -20 1 -20 -9 0 -15 -4 -12 -8 3 -5 7 -20 10
-34 4 -26 34 -78 43 -78 3 0 2 8 -1 17 -4 9 -2 20 4 23 8 5 6 9 -5 13 -9 4
-13 3 -10 -3 3 -6 1 -10 -4 -10 -6 0 -11 5 -12 10 -4 36 -2 60 4 60 29 0 31
-1 22 -8 -5 -4 -11 -14 -13 -22 -2 -8 0 -12 4 -8 4 4 13 3 21 -3 10 -9 13 -8
13 1 0 10 4 9 18 -1 15 -11 15 -11 4 1 -7 8 -18 15 -25 15 -7 0 -12 5 -12 12
0 11 -51 63 -62 63 -3 0 2 -9 12 -20z"/>
<path d="M2600 1956 c0 -3 9 -10 20 -16 11 -6 20 -8 20 -6 0 3 -9 10 -20 16
-11 6 -20 8 -20 6z"/>
<path d="M2690 1921 c0 -6 4 -13 10 -16 6 -3 7 1 4 9 -7 18 -14 21 -14 7z"/>
<path d="M2830 1920 c0 -5 5 -10 11 -10 5 0 7 5 4 10 -3 6 -8 10 -11 10 -2 0
-4 -4 -4 -10z"/>
<path d="M2561 1900 c14 -31 19 -36 19 -24 0 6 -7 19 -16 30 -14 18 -14 18 -3
-6z"/>
<path d="M2640 1905 c0 -8 3 -15 6 -15 3 0 12 7 20 15 14 13 13 15 -5 15 -12
0 -21 -6 -21 -15z"/>
<path d="M2600 1891 c0 -5 7 -12 16 -15 14 -5 15 -4 4 9 -14 17 -20 19 -20 6z"/>
<path d="M2860 1886 c10 -13 10 -16 0 -16 -8 0 -11 -2 -8 -5 3 -3 15 -2 27 3
22 8 22 8 -5 21 -24 11 -26 10 -14 -3z"/>
<path d="M2659 1854 c-20 -24 -19 -41 3 -61 20 -18 21 -18 9 4 -29 56 -1 71
41 21 14 -18 29 -30 32 -28 5 5 -58 80 -67 80 -3 0 -11 -7 -18 -16z"/>
<path d="M2825 1840 c10 -11 20 -20 22 -20 7 0 -2 25 -12 32 -21 16 -27 7 -10
-12z"/>
<path d="M2888 1853 c7 -3 16 -2 19 1 4 3 -2 6 -13 5 -11 0 -14 -3 -6 -6z"/>
<path d="M2880 1835 c0 -2 10 -10 23 -16 20 -11 21 -11 8 4 -13 16 -31 23 -31
12z"/>
<path d="M2620 1816 c0 -8 4 -17 9 -20 5 -4 7 3 4 14 -6 23 -13 26 -13 6z"/>
<path d="M2454 1801 c10 -15 86 -54 86 -43 0 6 -18 17 -84 51 -5 2 -6 -1 -2
-8z"/>
<path d="M2855 1790 c-3 -5 -17 -7 -31 -4 -18 3 -23 1 -18 -7 5 -9 2 -10 -12
-6 -14 5 -12 2 6 -12 14 -11 34 -22 45 -25 17 -4 16 -2 -5 15 -14 12 -20 18
-14 15 7 -3 17 1 24 9 6 7 18 11 26 8 8 -3 14 -3 14 0 0 10 -29 16 -35 7z"/>
<path d="M2595 1760 c3 -5 8 -10 11 -10 2 0 4 5 4 10 0 6 -5 10 -11 10 -5 0
-7 -4 -4 -10z"/>
<path d="M2670 1760 c0 -5 5 -10 11 -10 5 0 7 5 4 10 -3 6 -8 10 -11 10 -2 0
-4 -4 -4 -10z"/>
<path d="M2860 1761 c0 -15 16 -22 35 -15 13 5 14 8 3 15 -18 12 -38 11 -38 0z"/>
<path d="M2765 1730 c10 -11 20 -20 23 -20 3 0 -3 9 -13 20 -10 11 -20 20 -23
20 -3 0 3 -9 13 -20z"/>
<path d="M2814 1721 c20 -22 26 -25 26 -13 0 4 -10 13 -22 21 -23 14 -23 14
-4 -8z"/>
<path d="M2885 1710 c10 -11 22 -17 26 -14 5 3 6 -2 3 -10 -3 -9 -2 -16 4 -16
5 0 9 10 8 22 -1 15 -10 24 -30 29 -27 8 -27 7 -11 -11z"/>
<path d="M2630 1712 c0 -5 7 -9 15 -9 8 0 15 4 15 9 0 4 -7 8 -15 8 -8 0 -15
-4 -15 -8z"/>
<path d="M2408 1693 c7 -3 16 -2 19 1 4 3 -2 6 -13 5 -11 0 -14 -3 -6 -6z"/>
<path d="M2710 1688 c0 -4 4 -8 9 -8 6 0 12 4 15 8 3 5 -1 9 -9 9 -8 0 -15 -4
-15 -9z"/>
<path d="M2766 1658 c10 -14 21 -24 23 -22 3 3 -6 15 -18 27 l-24 22 19 -27z"/>
<path d="M2816 1655 c19 -29 20 -30 27 -11 3 8 -5 18 -19 25 -24 11 -24 10 -8
-14z"/>
<path d="M2877 1669 c7 -7 15 -10 18 -7 3 3 -2 9 -12 12 -14 6 -15 5 -6 -5z"/>
<path d="M2740 1639 c0 -5 5 -7 10 -4 6 3 10 8 10 11 0 2 -4 4 -10 4 -5 0 -10
-5 -10 -11z"/>
<path d="M3044 1631 c20 -22 26 -25 26 -13 0 4 -10 13 -22 21 -23 14 -23 14
-4 -8z"/>
<path d="M2710 1631 c0 -5 5 -13 10 -16 6 -3 10 -2 10 4 0 5 -4 13 -10 16 -5
3 -10 2 -10 -4z"/>
<path d="M2890 1630 c0 -5 5 -10 11 -10 5 0 7 -5 3 -12 -4 -7 -3 -8 5 -4 9 6
9 11 0 22 -14 17 -19 18 -19 4z"/>
<path d="M2680 1615 c0 -15 51 -75 60 -70 5 3 18 -8 30 -25 12 -17 26 -28 31
-25 5 4 9 2 9 -3 0 -6 8 -13 17 -16 15 -6 15 -5 -1 13 -23 25 -13 45 14 29 10
-7 16 -17 12 -23 -3 -5 2 -4 11 4 17 13 14 36 -4 26 -5 -4 -9 4 -9 17 0 18 -2
20 -10 8 -9 -15 -11 -13 -14 12 -1 16 -66 42 -66 27 0 -8 -6 -7 -17 2 -17 13
-17 13 -1 -13 26 -40 -6 -30 -37 12 -14 19 -25 30 -25 25z m118 -48 c-1 -2 2
-10 9 -18 9 -11 9 -18 0 -30 -11 -15 -14 -14 -31 8 -18 25 -18 25 2 19 17 -6
20 -3 15 16 -3 13 -3 20 1 16 4 -3 6 -8 4 -11z"/>
<path d="M2820 1601 c0 -5 7 -11 14 -14 10 -4 13 -1 9 9 -6 15 -23 19 -23 5z"/>
<path d="M2988 1603 c7 -3 16 -2 19 1 4 3 -2 6 -13 5 -11 0 -14 -3 -6 -6z"/>
<path d="M3071 1601 c-11 -7 -9 -12 10 -22 21 -11 22 -10 12 3 -7 8 -10 18 -6
21 9 10 1 8 -16 -2z"/>
<path d="M3043 1569 c7 -11 26 -27 42 -34 17 -8 41 -22 55 -31 17 -11 15 -8
-7 12 -17 16 -47 39 -67 51 -34 21 -35 21 -23 2z"/>
<path d="M3237 1569 c7 -7 15 -10 18 -7 3 3 -2 9 -12 12 -14 6 -15 5 -6 -5z"/>
<path d="M2895 1510 c3 -5 11 -10 16 -10 6 0 7 5 4 10 -3 6 -11 10 -16 10 -6
0 -7 -4 -4 -10z"/>
<path d="M2772 1458 c7 -13 11 -27 9 -33 -1 -5 3 -5 9 1 9 9 8 17 -2 33 -17
28 -32 27 -16 -1z"/>
<path d="M2960 1450 c12 -16 26 -30 31 -30 5 0 0 14 -13 30 -12 17 -26 30 -31
30 -4 0 1 -13 13 -30z"/>
<path d="M4100 1480 c0 -5 5 -10 10 -10 6 0 10 5 10 10 0 6 -4 10 -10 10 -5 0
-10 -4 -10 -10z"/>
</g>
</svg>
